<svg width="56" height="57" viewBox="0 0 56 57" fill="none" xmlns="http://www.w3.org/2000/svg">
<path d="M25.6966 4.74121C24.6972 4.7412 23.7325 5.10769 22.9853 5.77128C22.238 6.43486 21.76 7.34946 21.6419 8.34183L25.1174 8.75571C25.1342 8.61392 25.2025 8.48323 25.3092 8.38841C25.416 8.29359 25.5538 8.24121 25.6966 8.24121V4.74121ZM30.3026 4.74121H25.6966V8.24121H30.3026V4.74121ZM34.3574 8.34183C34.2392 7.34946 33.7612 6.43486 33.014 5.77128C32.2667 5.10769 31.302 4.7412 30.3026 4.74121V8.24121C30.4454 8.24121 30.5832 8.29359 30.69 8.38841C30.7967 8.48323 30.865 8.61392 30.8819 8.75571L34.3574 8.34183ZM34.7129 11.3285L34.3574 8.34183L30.8819 8.75571L31.2374 11.7424L34.7129 11.3285ZM41.9098 12.7023L39.1351 13.8923L40.5144 17.1087L43.2891 15.9187L41.9098 12.7023ZM47.0554 14.4135C46.5557 13.548 45.7559 12.8958 44.8076 12.5804C43.8593 12.265 42.8283 12.3084 41.9098 12.7023L43.2891 15.9187C43.4203 15.8624 43.5676 15.8565 43.7032 15.9015C43.8387 15.9466 43.953 16.0398 44.0244 16.1635L47.0554 14.4135ZM49.3584 18.4023L47.0554 14.4135L44.0244 16.1635L46.3274 20.1523L49.3584 18.4023ZM48.2675 23.7141C49.0679 23.1156 49.6209 22.2444 49.822 21.2654C50.023 20.2865 49.8581 19.2678 49.3584 18.4023L46.3274 20.1523C46.3987 20.276 46.4223 20.4215 46.3935 20.5614C46.3648 20.7013 46.2857 20.8257 46.1713 20.9112L48.2675 23.7141ZM45.6472 25.6735L48.2675 23.7141L46.1713 20.9112L43.5513 22.8706L45.6472 25.6735ZM48.2675 32.435L45.6472 30.4755L43.5513 33.2785L46.1713 35.2379L48.2675 32.435ZM49.3584 37.7468C49.8581 36.8813 50.023 35.8626 49.822 34.8837C49.6209 33.9047 49.0679 33.0335 48.2675 32.435L46.1713 35.2379C46.2857 35.3233 46.3648 35.4478 46.3935 35.5877C46.4223 35.7276 46.3987 35.8731 46.3274 35.9968L49.3584 37.7468ZM47.0554 41.7356L49.3584 37.7468L46.3274 35.9968L44.0244 39.9856L47.0554 41.7356ZM41.9098 43.4468C42.8283 43.8407 43.8593 43.884 44.8076 43.5687C45.7559 43.2533 46.5557 42.6011 47.0554 41.7356L44.0244 39.9856C43.9529 40.1093 43.8386 40.2024 43.7031 40.2475C43.5676 40.2925 43.4203 40.2863 43.2891 40.23L41.9098 43.4468ZM39.1351 42.2568L41.9098 43.4468L43.2891 40.23L40.5147 39.0403L39.1351 42.2568ZM34.3574 47.8072L34.7129 44.8206L31.2374 44.4067L30.8819 47.3934L34.3574 47.8072ZM30.3026 51.4079C31.302 51.4079 32.2667 51.0414 33.014 50.3778C33.7612 49.7142 34.2392 48.7996 34.3574 47.8072L30.8819 47.3934C30.865 47.5352 30.7967 47.6658 30.69 47.7607C30.5832 47.8555 30.4454 47.9079 30.3026 47.9079V51.4079ZM25.6966 51.4079H30.3026V47.9079H25.6966V51.4079ZM21.6419 47.8072C21.76 48.7996 22.238 49.7142 22.9853 50.3778C23.7325 51.0414 24.6972 51.4079 25.6966 51.4079V47.9079C25.5538 47.9079 25.416 47.8555 25.3092 47.7607C25.2025 47.6658 25.1342 47.5352 25.1174 47.3934L21.6419 47.8072ZM21.3467 45.3269L21.6419 47.8072L25.1174 47.3934L24.8222 44.913L21.3467 45.3269ZM14.9994 39.2483L12.7101 40.23L14.0894 43.4468L16.3787 42.4651L14.9994 39.2483ZM12.7101 40.23C12.5789 40.2863 12.4314 40.2925 12.2959 40.2474C12.1605 40.2024 12.0462 40.1092 11.9749 39.9856L8.94386 41.7356C9.44354 42.6011 10.2433 43.2533 11.1916 43.5687C12.1399 43.884 13.1709 43.8407 14.0894 43.4468L12.7101 40.23ZM11.9749 39.9856L9.67185 35.9968L6.64086 37.7468L8.94386 41.7356L11.9749 39.9856ZM9.67185 35.9968C9.60047 35.8731 9.57692 35.7276 9.60568 35.5877C9.63444 35.4478 9.71351 35.3233 9.8279 35.2379L7.73169 32.435C6.93134 33.0335 6.37827 33.9047 6.17723 34.8837C5.97619 35.8626 6.14115 36.8813 6.64086 37.7468L9.67185 35.9968ZM9.8279 35.2379L11.6164 33.9006L9.52019 31.0977L7.73169 32.435L9.8279 35.2379ZM7.73169 23.7141L9.52019 25.0517L11.6164 22.2488L9.8279 20.9112L7.73169 23.7141ZM6.64086 18.4023C6.14115 19.2678 5.97619 20.2865 6.17723 21.2654C6.37827 22.2444 6.93134 23.1156 7.73169 23.7141L9.8279 20.9112C9.71351 20.8257 9.63444 20.7013 9.60568 20.5614C9.57692 20.4215 9.60047 20.276 9.67185 20.1523L6.64086 18.4023ZM8.94386 14.4135L6.64086 18.4023L9.67185 20.1523L11.9749 16.1635L8.94386 14.4135ZM14.0894 12.7023C13.1709 12.3084 12.1399 12.265 11.1916 12.5804C10.2433 12.8958 9.44354 13.548 8.94386 14.4135L11.9749 16.1635C12.0462 16.0398 12.1605 15.9467 12.2959 15.9017C12.4314 15.8566 12.5787 15.8628 12.7099 15.919L14.0894 12.7023ZM16.3787 13.684L14.0894 12.7023L12.7099 15.919L14.9994 16.9008L16.3787 13.684ZM21.6419 8.34183L21.3467 10.8222L24.8222 11.236L25.1174 8.75571L21.6419 8.34183ZM21.1303 16.3778C22.903 15.3786 24.5399 13.6067 24.8222 11.236L21.3467 10.8222C21.2353 11.7581 20.5391 12.6935 19.4115 13.3293L21.1303 16.3778ZM14.9994 16.9008C17.1239 17.812 19.3905 17.3587 21.1303 16.3778L19.4115 13.3293C18.3311 13.9383 17.2295 14.0489 16.3787 13.684L14.9994 16.9008ZM14.2913 28.0745C14.2913 26.0037 13.5481 23.6934 11.6164 22.2488L9.52019 25.0517C10.3129 25.6447 10.7913 26.744 10.7913 28.0745H14.2913ZM21.1303 39.7712C19.3905 38.7904 17.1239 38.3371 14.9994 39.2483L16.3787 42.4651C17.2295 42.1002 18.3311 42.211 19.4115 42.8203L21.1303 39.7712ZM11.6164 33.9006C13.5484 32.456 14.2913 30.1454 14.2913 28.0745H10.7913C10.7913 29.4054 10.3129 30.505 9.52019 31.0977L11.6164 33.9006ZM34.5641 39.61C32.9495 40.5719 31.4967 42.2297 31.2374 44.4067L34.7129 44.8206C34.8089 44.0141 35.389 43.1925 36.3556 42.6165L34.5641 39.61ZM40.5147 39.0403C38.4456 38.1531 36.2363 38.6136 34.5641 39.61L36.3556 42.6165C37.342 42.0287 38.3599 41.9246 39.1351 42.2568L40.5147 39.0403ZM24.8222 44.913C24.5399 42.5427 22.903 40.7708 21.1303 39.7712L19.4115 42.8203C20.5391 43.4559 21.2353 44.391 21.3467 45.3269L24.8222 44.913ZM41.1246 28.0745C41.1246 29.938 41.824 31.987 43.5513 33.2785L45.6472 30.4755C45.0254 30.0106 44.6246 29.1444 44.6246 28.0745H41.1246ZM43.5513 22.8706C41.824 24.1621 41.1246 26.2108 41.1246 28.0745H44.6246C44.6246 27.0047 45.0254 26.1385 45.6472 25.6735L43.5513 22.8706ZM34.5641 16.5391C36.2363 17.5355 38.4456 17.996 40.5144 17.1087L39.1351 13.8923C38.3599 14.2248 37.342 14.12 36.3556 13.5323L34.5641 16.5391ZM31.2374 11.7424C31.4967 13.9194 32.9495 15.5772 34.5641 16.5391L36.3556 13.5323C35.389 12.9566 34.8089 12.1353 34.7129 11.3285L31.2374 11.7424Z" fill="#012534" fill-opacity="0.7"/>
<path d="M30.9173 23.4072H25.084C24.1175 23.4072 23.334 24.1907 23.334 25.1572V30.9906C23.334 31.9571 24.1175 32.7406 25.084 32.7406H30.9173C31.8838 32.7406 32.6673 31.9571 32.6673 30.9906V25.1572C32.6673 24.1907 31.8838 23.4072 30.9173 23.4072Z" stroke="#012534" stroke-opacity="0.7" stroke-width="2"/>
<path d="M25.3756 22.8239V19.9072M33.2506 25.4489H36.1673M25.3756 36.2406V33.3239M19.834 25.4489H22.7507M30.6256 22.8239V19.9072M33.2506 30.6989H36.1673M30.6256 36.2406V33.3239M19.834 30.6989H22.7507" stroke="#012534" stroke-opacity="0.7" stroke-width="2" stroke-linecap="round" stroke-linejoin="round"/>
</svg>
