<svg width="56" height="57" viewBox="0 0 56 57" fill="none" xmlns="http://www.w3.org/2000/svg">
<g clip-path="url(#clip0_201_159)">
<path d="M20.9991 2.94413C20.9956 2.94413 20.9922 2.94413 20.9887 2.94413C18.4109 2.94413 16.2794 4.27238 15.3204 6.44413H14.4804C14.4751 6.44413 14.4699 6.44413 14.4646 6.44413C12.2404 6.44413 10.1281 7.18788 8.51815 8.54238C6.81015 9.97738 5.86865 11.9566 5.86515 14.1109C5.8634 15.8521 6.78565 17.7806 7.6589 18.9951C3.76865 20.3426 1.1244 23.6029 1.11915 27.1991C1.1139 30.7796 3.7564 34.0416 7.65365 35.4014C6.76815 36.6124 5.82665 38.5304 5.8249 40.2419C5.81965 44.4874 9.70115 47.9471 14.4821 47.9559H15.3221C16.2724 50.1224 18.4091 51.4524 20.9991 51.4559C21.0026 51.4559 21.0061 51.4559 21.0114 51.4559C24.4624 51.4559 26.8757 49.0391 26.8809 45.5759V8.82413C26.8844 5.36788 24.4676 2.94938 20.9991 2.94413ZM20.9991 32.6941C20.3814 32.6941 19.8791 32.1919 19.8791 31.5741C19.8791 30.9564 20.3814 30.4541 20.9991 30.4541C21.6169 30.4541 22.1192 30.9564 22.1192 31.5741C22.1192 32.1919 21.6169 32.6941 20.9991 32.6941ZM25.6192 23.9441H21.6291V12.8579C22.6354 12.5796 23.3791 11.6661 23.3791 10.5741C23.3791 9.26163 22.3116 8.19413 20.9991 8.19413C19.6866 8.19413 18.6192 9.26163 18.6192 10.5741C18.6192 11.6679 19.3629 12.5796 20.3692 12.8579V23.9441H17.4991H17.4956C16.0991 23.9441 15.1209 24.9224 15.1192 26.3241V27.4441H11.0329C10.7546 26.4379 9.84115 25.6941 8.74915 25.6941C7.43665 25.6941 6.36915 26.7616 6.36915 28.0741C6.36915 29.3866 7.43665 30.4541 8.74915 30.4541C9.8429 30.4541 10.7564 29.7086 11.0329 28.7041H15.1192V38.9136C14.1129 39.1919 13.3691 40.1054 13.3691 41.1991C13.3691 42.5116 14.4366 43.5791 15.7491 43.5791C17.0616 43.5791 18.1291 42.5116 18.1291 41.1991C18.1291 40.1054 17.3854 39.1919 16.3791 38.9136V26.3241C16.3809 25.6224 16.7974 25.2024 17.4974 25.2024H17.4991H25.6192V45.5706C25.6139 48.1186 24.0301 49.8756 21.6291 50.1381V33.8579C22.6354 33.5796 23.3791 32.6661 23.3791 31.5724C23.3791 30.2599 22.3116 29.1924 20.9991 29.1924C19.6866 29.1924 18.6192 30.2599 18.6192 31.5724C18.6192 32.6661 19.3629 33.5796 20.3692 33.8579V50.1504C18.4389 49.9509 16.9549 48.8519 16.3441 47.1141C16.2549 46.8621 16.0169 46.6941 15.7491 46.6941H14.4821C10.9191 46.6889 7.07965 44.2214 7.08315 40.2436C7.08665 38.5531 8.33265 36.3779 9.19365 35.5204C9.35465 35.3611 9.4159 35.1266 9.3564 34.9079C9.2969 34.6891 9.1254 34.5194 8.90665 34.4634C5.0584 33.4729 2.3739 30.4856 2.37915 27.1991C2.3844 23.9161 5.04265 20.9464 8.8454 19.9524H13.4654C13.7436 20.9586 14.6571 21.7024 15.7491 21.7024C17.0616 21.7024 18.1291 20.6349 18.1291 19.3224C18.1291 18.0099 17.0616 16.9441 15.7491 16.9441C14.6554 16.9441 13.7436 17.6879 13.4654 18.6941H9.03265C8.1979 17.7474 7.12165 15.7349 7.1234 14.1126C7.1269 12.3346 7.90915 10.7001 9.33015 9.50663C10.6934 8.36038 12.5659 7.70413 14.4681 7.70413C14.4716 7.70413 14.4769 7.70413 14.4821 7.70413H15.7491C16.0151 7.70413 16.2531 7.53613 16.3424 7.28588C17.0284 5.35563 18.7644 4.20413 20.9887 4.20413C20.9922 4.20413 20.9939 4.20413 20.9974 4.20413C23.7676 4.20938 25.6244 6.06438 25.6192 8.82413V23.9441ZM20.9991 11.6941C20.3814 11.6941 19.8791 11.1919 19.8791 10.5741C19.8791 9.95638 20.3814 9.45413 20.9991 9.45413C21.6169 9.45413 22.1192 9.95638 22.1192 10.5741C22.1192 11.1919 21.6169 11.6941 20.9991 11.6941ZM15.7491 40.0791C16.3669 40.0791 16.8692 40.5814 16.8692 41.1991C16.8692 41.8169 16.3669 42.3191 15.7491 42.3191C15.1314 42.3191 14.6291 41.8169 14.6291 41.1991C14.6291 40.5814 15.1314 40.0791 15.7491 40.0791ZM9.86915 28.0741C9.86915 28.6919 9.3669 29.1941 8.74915 29.1941C8.1314 29.1941 7.62915 28.6919 7.62915 28.0741C7.62915 27.4564 8.1314 26.9541 8.74915 26.9541C9.3669 26.9541 9.86915 27.4564 9.86915 28.0741ZM14.6291 19.3241C14.6291 18.7064 15.1314 18.2041 15.7491 18.2041C16.3669 18.2041 16.8692 18.7064 16.8692 19.3241C16.8692 19.9419 16.3669 20.4441 15.7491 20.4441C15.1314 20.4441 14.6291 19.9419 14.6291 19.3241ZM54.8792 27.1991C54.8827 23.6186 52.2402 20.3584 48.3447 18.9969C49.2319 17.7859 50.1717 15.8679 50.1752 14.1546C50.1787 12.0004 49.2302 10.0159 47.5047 8.56688C45.8999 7.21938 43.7194 6.44588 41.5179 6.44238H40.6779C39.7259 4.27588 37.5909 2.94588 35.0027 2.94238C34.9974 2.94238 34.9939 2.94238 34.9887 2.94238C33.2877 2.94238 31.8247 3.50763 30.7572 4.57513C29.6879 5.64788 29.1227 7.11438 29.1192 8.82413V45.5724C29.1139 49.0304 31.5307 51.4471 34.9974 51.4541C35.0027 51.4541 35.0062 51.4541 35.0097 51.4541C37.5874 51.4541 39.7172 50.1241 40.6762 47.9541H41.5144C41.5214 47.9541 41.5266 47.9541 41.5319 47.9541C43.7561 47.9541 45.8684 47.2086 47.4784 45.8559C49.1882 44.4209 50.1297 42.4434 50.1332 40.2874C50.1349 38.5461 49.2127 36.6159 48.3394 35.4031C52.2314 34.0556 54.8739 30.7954 54.8792 27.1991ZM34.9991 21.7041C35.6169 21.7041 36.1191 22.2064 36.1191 22.8241C36.1191 23.4419 35.6169 23.9441 34.9991 23.9441C34.3814 23.9441 33.8792 23.4419 33.8792 22.8241C33.8792 22.2064 34.3814 21.7041 34.9991 21.7041ZM47.1547 34.4441H42.5329C42.2547 33.4379 41.3412 32.6941 40.2474 32.6941C38.9349 32.6941 37.8674 33.7616 37.8674 35.0741C37.8674 36.3866 38.9349 37.4541 40.2474 37.4541C41.3394 37.4541 42.2547 36.7104 42.5329 35.7041H46.9656C47.7986 36.6509 48.8749 38.6634 48.8714 40.2856C48.8697 42.0636 48.0874 43.6981 46.6664 44.8899C45.2997 46.0396 43.4027 46.6574 41.5162 46.6924H40.2491C39.9832 46.6924 39.7452 46.8621 39.6559 47.1106C38.9682 49.0426 37.2322 50.1924 35.0097 50.1924C35.0062 50.1924 35.0009 50.1924 35.0009 50.1924C33.6342 50.1906 32.4722 49.7514 31.6427 48.9236C30.8132 48.0959 30.3757 46.9391 30.3792 45.5741V30.4541H34.3674V41.5386C33.3611 41.8169 32.6174 42.7304 32.6174 43.8241C32.6174 45.1366 33.6849 46.2041 34.9974 46.2041C36.3099 46.2041 37.3774 45.1366 37.3774 43.8241C37.3774 42.7321 36.6336 41.8169 35.6274 41.5386V30.4541H38.4957H38.5009C39.8992 30.4541 40.8739 29.4759 40.8774 28.0741V26.9541H44.9619C45.2402 27.9604 46.1537 28.7041 47.2474 28.7041C48.5599 28.7041 49.6274 27.6366 49.6274 26.3241C49.6274 25.0116 48.5599 23.9441 47.2474 23.9441C46.1537 23.9441 45.2402 24.6879 44.9619 25.6941H40.8792V15.4829C41.8854 15.2046 42.6292 14.2911 42.6292 13.1991C42.6292 11.8866 41.5616 10.8191 40.2491 10.8191C38.9366 10.8191 37.8691 11.8866 37.8691 13.1991C37.8691 14.2911 38.6129 15.2046 39.6191 15.4829V28.0741C39.6191 28.7759 39.2027 29.1959 38.5027 29.1959H38.4991H30.3792V8.82413C30.3809 7.45738 30.8201 6.29538 31.6479 5.46763C32.3426 4.77113 33.2807 4.37038 34.3691 4.25488V20.5386C33.3629 20.8169 32.6192 21.7304 32.6192 22.8224C32.6192 24.1349 33.6866 25.2024 34.9991 25.2024C36.3116 25.2024 37.3792 24.1349 37.3792 22.8224C37.3792 21.7304 36.6354 20.8169 35.6292 20.5386V4.24613C37.5594 4.44738 39.0434 5.54463 39.6542 7.28413C39.7434 7.53613 39.9832 7.70413 40.2491 7.70413H41.5162C43.4272 7.70588 45.3137 8.37438 46.6944 9.53288C48.1294 10.7386 48.9187 12.3784 48.9151 14.1546C48.9134 15.8451 47.6656 18.0204 46.8064 18.8779C46.6454 19.0371 46.5842 19.2716 46.6419 19.4904C46.7014 19.7091 46.8746 19.8789 47.0934 19.9349C50.9399 20.9271 53.6244 23.9144 53.6192 27.1991C53.6157 30.4786 50.9591 33.4466 47.1547 34.4441ZM41.3691 35.0741C41.3691 35.6919 40.8669 36.1941 40.2491 36.1941C39.6314 36.1941 39.1292 35.6919 39.1292 35.0741C39.1292 34.4564 39.6314 33.9541 40.2491 33.9541C40.8669 33.9541 41.3691 34.4564 41.3691 35.0741ZM34.9991 42.7041C35.6169 42.7041 36.1191 43.2064 36.1191 43.8241C36.1191 44.4419 35.6169 44.9441 34.9991 44.9441C34.3814 44.9441 33.8792 44.4419 33.8792 43.8241C33.8792 43.2064 34.3814 42.7041 34.9991 42.7041ZM40.2491 14.3191C39.6314 14.3191 39.1292 13.8169 39.1292 13.1991C39.1292 12.5814 39.6314 12.0791 40.2491 12.0791C40.8669 12.0791 41.3691 12.5814 41.3691 13.1991C41.3691 13.8169 40.8669 14.3191 40.2491 14.3191ZM46.1292 26.3241C46.1292 25.7064 46.6314 25.2041 47.2492 25.2041C47.8669 25.2041 48.3692 25.7064 48.3692 26.3241C48.3692 26.9419 47.8669 27.4441 47.2492 27.4441C46.6314 27.4441 46.1292 26.9419 46.1292 26.3241Z" fill="#012534" fill-opacity="0.7"/>
</g>
<defs>
<clipPath id="clip0_201_159">
<rect width="56" height="56" fill="white" transform="translate(0 0.0742188)"/>
</clipPath>
</defs>
</svg>
