<svg width="56" height="57" viewBox="0 0 56 57" fill="none" xmlns="http://www.w3.org/2000/svg">
<g clip-path="url(#clip0_201_193)">
<path d="M5.41973 3.6875H3.61328V5.49395H5.41973V3.6875Z" fill="#012534" fill-opacity="0.7"/>
<path d="M9.03301 3.6875H7.22656V5.49395H9.03301V3.6875Z" fill="#012534" fill-opacity="0.7"/>
<path d="M12.6443 3.6875H10.8379V5.49395H12.6443V3.6875Z" fill="#012534" fill-opacity="0.7"/>
<path d="M56 0.0742188H0V43.4291H11.7419V51.5581C11.7419 54.0483 13.7679 56.0742 16.2581 56.0742C18.7483 56.0742 20.7742 54.0483 20.7742 51.5581V43.4291H32.2154L31.6129 43.8807V56.0742H37.9355V48.8484H41.5484V56.0742H47.871V43.8807L47.2685 43.4291H56V0.0742188ZM18.9677 51.5581C18.9677 53.052 17.752 54.2678 16.2581 54.2678C14.7641 54.2678 13.5484 53.052 13.5484 51.5581V36.2033H15.3548V48.8484H17.1613V36.2033H18.9677V51.5581ZM15.3548 34.3968V18.286L16.0061 16.3323H16.5101L17.1613 18.2851V34.3968H15.3548ZM18.9677 34.3968V17.9924L17.8125 14.5258H14.7045L13.5484 17.9924V34.3968H9.93548V36.2033H11.7419V38.0097H5.41935V12.7194H50.5806V38.0097H44.2581V29.4291L47.871 26.7194V14.5258H41.5484V21.7516H37.9355V14.5258H31.6129V26.7194L35.2258 29.4291V38.0097H20.7742V36.2033H22.5806V34.3968H18.9677ZM20.7742 41.6226V39.8162H35.2258V41.171L34.6234 41.6226H20.7742ZM46.0645 54.2678H43.3548V47.042H36.129V54.2678H33.4194V44.7839L37.0323 42.0742V28.5258L33.4194 25.8162V16.3323H36.129V23.5581H43.3548V16.3323H46.0645V25.8162L42.4516 28.5258V42.0742L46.0645 44.7839V54.2678ZM54.1935 41.6226H44.8605L44.2581 41.171V39.8162H52.3871V10.9129H3.6129V39.8162H11.7419V41.6226H1.80645V9.10648H54.1935V41.6226ZM54.1935 7.30002H1.80645V1.88067H54.1935V7.30002Z" fill="#012534" fill-opacity="0.7"/>
<path d="M17.1619 50.6553H15.3555V52.4617H17.1619V50.6553Z" fill="#012534" fill-opacity="0.7"/>
<path d="M40.6443 34.3965H38.8379V36.2029H40.6443V34.3965Z" fill="#012534" fill-opacity="0.7"/>
<path d="M40.6443 30.7842H38.8379V32.5906H40.6443V30.7842Z" fill="#012534" fill-opacity="0.7"/>
<path d="M40.6443 38.0098H38.8379V39.8162H40.6443V38.0098Z" fill="#012534" fill-opacity="0.7"/>
</g>
<defs>
<clipPath id="clip0_201_193">
<rect width="56" height="56" fill="white" transform="translate(0 0.0742188)"/>
</clipPath>
</defs>
</svg>
