<svg width="56" height="57" viewBox="0 0 56 57" fill="none" xmlns="http://www.w3.org/2000/svg">
<g clip-path="url(#clip0_201_177)">
<path d="M38.9366 54.9543C34.6771 54.9543 30.6731 53.2971 27.6649 50.2853C24.6531 47.2736 22.9941 43.2696 22.9941 39.0118C22.9941 36.0806 23.7799 33.2718 25.2516 30.8218C22.8034 32.2936 19.9929 33.0793 17.0616 33.0793C12.8039 33.0793 8.79989 31.4203 5.78989 28.4086C2.77639 25.3986 1.11914 21.3946 1.11914 17.1368C1.11914 12.8791 2.77814 8.87509 5.78989 5.86509C8.79989 2.85159 12.8039 1.19434 17.0616 1.19434C21.3194 1.19434 25.3234 2.85334 28.3334 5.86509C31.3451 8.87509 33.0041 12.8791 33.0041 17.1368C33.0041 20.0663 32.2184 22.8768 30.7466 25.3251C33.1949 23.8551 36.0054 23.0676 38.9366 23.0676C43.1961 23.0676 47.2001 24.7266 50.2101 27.7383C53.2219 30.7483 54.8791 34.7523 54.8791 39.0101C54.8791 43.2678 53.2219 47.2736 50.2101 50.2836C47.1984 53.2936 43.1961 54.9543 38.9366 54.9543ZM38.9366 24.3293C35.0149 24.3293 31.3276 25.8571 28.5539 28.6308C25.7819 31.4046 24.2524 35.0901 24.2524 39.0136C24.2524 42.9371 25.7801 46.6243 28.5539 49.3963C31.3276 52.1701 35.0131 53.6978 38.9366 53.6978C42.8601 53.6978 46.5474 52.1701 49.3194 49.3963C52.0931 46.6243 53.6209 42.9371 53.6209 39.0136C53.6209 35.0901 52.0931 31.4046 49.3194 28.6308C46.5474 25.8571 42.8584 24.3293 38.9366 24.3293ZM14.6554 31.6233C15.4429 31.7528 16.2479 31.8176 17.0616 31.8176C20.8451 31.8176 24.4081 30.3966 27.1451 27.8066V17.3503H28.4051V26.4608C30.5681 23.8393 31.7441 20.5791 31.7441 17.1368C31.7441 15.9801 31.6129 14.8426 31.3521 13.7436L22.2889 8.51109L22.9189 7.41909L30.8166 11.9778C30.0904 10.0388 28.9511 8.26084 27.4426 6.75234C25.6926 5.00234 23.5769 3.74759 21.2686 3.06159L12.2036 8.29409L11.5736 7.20209L19.4661 2.64509C18.6786 2.51559 17.8736 2.45084 17.0599 2.45084C13.2764 2.45084 9.71339 3.87184 6.97639 6.46184V16.9198H5.71639V7.81284C3.55514 10.4343 2.37914 13.6946 2.37914 17.1368C2.37914 18.2936 2.51214 19.4311 2.77114 20.5301L11.8361 25.7626L11.2061 26.8546L3.30664 22.2941C4.03289 24.2331 5.17214 26.0111 6.68064 27.5196C8.43064 29.2696 10.5464 30.5243 12.8546 31.2103L21.9196 25.9778L22.5496 27.0698L14.6554 31.6233ZM39.1291 49.9493H37.8691V47.0793H33.2491V45.8193H40.2491C41.8311 45.8193 43.1191 44.5331 43.1191 42.9493C43.1191 41.3656 41.8329 40.0793 40.2491 40.0793H36.7491C34.4706 40.0793 32.6191 38.2261 32.6191 35.9493C32.6191 33.6726 34.4724 31.8193 36.7491 31.8193H37.8691V28.9493H39.1309V31.8193H43.7491V33.0811H36.7491C35.1671 33.0811 33.8791 34.3673 33.8791 35.9511C33.8791 37.5348 35.1654 38.8211 36.7491 38.8211H40.2491C42.5276 38.8211 44.3791 40.6743 44.3791 42.9511C44.3791 45.2278 42.5259 47.0811 40.2491 47.0811H39.1291V49.9493ZM17.6916 21.5118H16.4316V17.7668H12.6866V16.5068H16.4316V12.7618H17.6916V16.5068H21.4366V17.7668H17.6916V21.5118Z" fill="#012534" fill-opacity="0.7"/>
</g>
<defs>
<clipPath id="clip0_201_177">
<rect width="56" height="56" fill="white" transform="translate(0 0.0742188)"/>
</clipPath>
</defs>
</svg>
