<svg width="93" height="24" viewBox="0 0 93 24" fill="none" xmlns="http://www.w3.org/2000/svg">
<g clip-path="url(#clip0_277_10917)">
<path d="M56.1502 19.8087L48.2936 2.95026C48.2275 2.80674 48.0846 2.71438 47.9265 2.71289C47.7677 2.71259 47.6231 2.80466 47.5562 2.94878L43.0705 12.5711C44.6586 16.0914 43.0922 20.2329 39.5718 21.8209C39.2552 21.9638 38.9281 22.0828 38.5938 22.1771C38.5404 22.2916 38.5899 22.4274 38.7041 22.4806C38.7345 22.4949 38.7675 22.5022 38.8009 22.5022H39.7443C41.5341 22.5019 43.1502 21.4315 43.8487 19.7836L47.9381 10.3414L52.6901 21.3461C52.9869 22.0463 53.6734 22.5013 54.4341 22.5016C55.4801 22.5007 56.3276 21.6521 56.3269 20.6059C56.3267 20.3303 56.2665 20.0583 56.1502 19.8087Z" fill="white"/>
<path d="M42.6778 15.4517C42.6763 18.7549 39.9976 21.4314 36.6945 21.43C35.8199 21.4296 34.9561 21.2374 34.164 20.8671C34.5599 20.5658 34.9345 20.2375 35.2854 19.8844C37.2251 17.9361 38.1947 15.5895 38.1942 12.8441V12.687C38.1916 12.4547 38.1813 12.2253 38.1636 11.9991C38.1032 11.1656 37.936 10.3433 37.6661 9.55239C37.1931 8.17545 36.4003 6.93104 35.2873 5.81914C34.5345 5.05631 33.665 4.41811 32.7115 3.92835C32.2118 3.67551 31.6899 3.46893 31.1525 3.31127C30.9833 3.2616 30.8127 3.21609 30.6387 3.17534C29.8586 2.99537 29.0605 2.90598 28.2599 2.90896C26.8168 2.90896 25.4848 3.17771 24.2637 3.71492C23.2003 4.18833 22.2295 4.8469 21.3969 5.66015C21.3412 5.71042 21.2875 5.76485 21.233 5.81854C19.969 7.08393 19.1168 8.52006 18.6762 10.1268C18.4572 10.9393 18.3401 11.776 18.3276 12.6175C18.3242 12.6937 18.3242 12.7698 18.3242 12.8453C18.3242 15.5743 19.2828 17.9098 21.1999 19.8516C18.7702 21.5358 15.4353 20.9317 13.7511 18.502C12.0667 16.0725 12.671 12.7374 15.1006 11.0532C15.4842 10.7873 15.9011 10.5727 16.3403 10.4149C15.0438 7.75797 16.1467 4.55331 18.8035 3.25669C19.534 2.90034 20.336 2.71472 21.1489 2.71442C21.6196 2.71413 22.0882 2.77584 22.5427 2.89795C24.5302 0.263807 28.2767 -0.260306 30.9108 1.72716C31.2563 1.98788 31.5725 2.28548 31.8539 2.61447C34.4015 0.49508 38.185 0.842221 40.3044 3.38995C42.0825 5.52719 42.1595 8.60573 40.4908 10.8295C41.8766 11.964 42.6795 13.6609 42.6778 15.4517Z" fill="white"/>
<path d="M28.2584 6.73047C24.8754 6.73047 22.1328 9.47303 22.1328 12.8563C22.1328 16.2393 24.8754 18.9819 28.2584 18.9819C31.6415 18.9819 34.3841 16.2395 34.3841 12.8563C34.3844 9.47348 31.6425 6.73091 28.2597 6.73047H28.2584ZM28.892 8.29376C28.8757 8.07022 29.081 7.83894 29.3059 7.68218C30.8172 7.98842 32.1195 8.9397 32.8706 10.2866C32.787 10.5491 32.6294 10.814 32.4119 10.8669C29.9903 11.6826 29.5465 11.1177 29.5465 11.1177L29.5248 11.1022C29.5246 11.1021 28.8518 10.8485 28.892 8.29376ZM29.5246 12.8562C29.5246 13.5553 28.9577 14.1223 28.2584 14.1223C27.5592 14.1223 26.9922 13.5553 26.9922 12.8562C26.9922 12.1568 27.5592 11.5899 28.2584 11.5899C28.9577 11.59 29.5246 12.1568 29.5246 12.8562ZM27.2138 7.67936C27.4387 7.83895 27.644 8.07022 27.6278 8.29093C27.6678 10.846 26.9943 11.0966 26.9943 11.0966L26.9542 11.1265C26.9542 11.1265 26.5165 11.6959 24.0861 10.9056C23.8679 10.8559 23.7076 10.5915 23.6211 10.3293C24.3682 8.95918 25.6824 7.98946 27.2118 7.67936H27.2138ZM24.4545 16.5146C23.5069 15.5326 22.978 14.2208 22.9797 12.8562C22.9797 12.6793 22.9883 12.505 23.0054 12.3326C23.2243 12.1647 23.505 12.0371 23.7137 12.1188C26.1671 12.8324 26.2093 13.5494 26.2093 13.5494L26.2194 13.5784C26.2194 13.5784 26.6273 14.1686 25.1416 16.2454C25.0234 16.4379 24.7277 16.5097 24.4524 16.5146H24.4545ZM30.5141 17.6328C29.1446 18.279 27.5637 18.3061 26.1726 17.7076C26.0787 17.4479 26.0414 17.1412 26.1821 16.9667C27.5312 14.9537 28.2265 15.0087 28.2945 15.0202H28.3006C28.3686 15.0066 29.0618 14.9278 30.4755 16.8934C30.6236 17.0627 30.5964 17.3704 30.5121 17.6329H30.5141V17.6328ZM32.1917 16.3822C31.9158 16.3883 31.6146 16.3259 31.4944 16.1368C30.0868 14.3079 30.271 13.6385 30.3165 13.5263C30.3181 13.5237 30.3196 13.5207 30.3206 13.5176V13.5073C30.3471 13.3877 30.5884 12.7381 32.7973 12.07C33.0052 11.9864 33.2866 12.1113 33.5075 12.2739C33.6746 13.7677 33.195 15.2619 32.1896 16.3794L32.1917 16.3822Z" fill="white"/>
<path d="M57.2422 19.1465V6.67032C57.2422 4.68315 58.8531 3.07227 60.8402 3.07227H64.1447C66.8632 3.07227 69.1826 4.03172 71.1029 5.95077C73.0231 7.86938 73.9824 10.1885 73.9811 12.9074C73.9811 15.6259 73.0218 17.9453 71.1029 19.8656C69.184 21.7858 66.8647 22.7451 64.1447 22.7439H60.8402C58.8534 22.7439 57.2426 21.1335 57.2422 19.1465ZM61.7958 17.5644C61.7954 18.0024 62.1503 18.3579 62.5883 18.3582H62.589H63.7516C65.2606 18.3582 66.5459 17.8272 67.6082 16.7652C68.6702 15.7031 69.2008 14.4172 69.1999 12.9074C69.1999 11.3978 68.6688 10.1122 67.6068 9.05102C66.5446 7.98999 65.2593 7.45888 63.7503 7.45799H62.5877C62.1495 7.45799 61.7945 7.81315 61.7945 8.25116L61.7958 17.5644Z" fill="white"/>
<path d="M79.5653 20.3572L79.5843 15.3129L74.337 6.70465C73.3672 5.11295 74.5124 3.07328 76.3759 3.07328H76.3908C77.2576 3.07313 78.0564 3.54253 78.4781 4.3L81.9313 10.5063L85.4111 4.29376C85.8329 3.53881 86.6298 3.07061 87.4948 3.07031C89.357 3.07031 90.503 5.10924 89.5337 6.6984L84.3004 15.31L84.3194 20.3543C84.3251 21.668 83.2646 22.7375 81.9509 22.7431C81.9476 22.7431 81.9441 22.7431 81.9408 22.7431C80.6271 22.7412 79.5635 21.6747 79.5653 20.3609C79.5653 20.3599 79.5653 20.3586 79.5653 20.3572Z" fill="white"/>
<path d="M10.6201 15.45C10.6236 13.0376 11.7795 10.7725 13.731 9.35437C13.6584 8.92915 13.6219 8.49843 13.6222 8.06712C13.6214 7.10558 13.8059 6.15313 14.1658 5.2615C13.9376 4.9981 13.6875 4.75462 13.4183 4.53317C11.9566 3.31968 9.78221 2.71302 6.89508 2.71302C5.88892 2.70975 4.88352 2.7673 3.8842 2.88569C3.04106 2.9785 2.21055 3.16248 1.40697 3.43406C0.988299 3.581 0.658864 3.77435 0.418815 4.01455C0.178618 4.25474 0.0585938 4.59444 0.0585938 5.03394V19.8053C0.0585938 20.3489 0.121058 20.7879 0.246139 21.1223C0.352629 21.4297 0.542854 21.7014 0.795247 21.9065C1.06341 22.1068 1.37499 22.2407 1.70473 22.2981C2.1234 22.3762 2.54891 22.4131 2.97487 22.408C3.46256 22.4077 3.94979 22.3762 4.43346 22.3136C5.05217 22.2352 5.51621 21.7093 5.5168 21.0855V16.1058H7.17915L9.81344 20.3392C9.99489 20.6433 10.1936 20.9365 10.4088 21.2173C10.6065 21.4779 10.8388 21.7102 11.0994 21.908C11.3648 22.1031 11.6618 22.2519 11.9774 22.3469C12.3646 22.4583 12.7662 22.5111 13.1689 22.5034C13.6987 22.5083 14.2213 22.3815 14.6898 22.1344C12.1919 20.8406 10.6225 18.2629 10.6201 15.45ZM9.37305 11.3232C8.91318 11.7309 8.28584 11.9348 7.49118 11.9348H5.48408V7.23096C5.71387 7.18887 5.92298 7.15735 6.11142 7.13652C6.36158 7.11317 6.61264 7.10261 6.86384 7.10529C7.97158 7.10529 8.78171 7.3092 9.29423 7.71686C9.8066 8.12453 10.0629 8.72555 10.0629 9.52006C10.0629 10.3149 9.83292 10.9159 9.37305 11.3232Z" fill="white"/>
<path d="M28.2293 14.1379C28.6001 14.1379 28.9154 14.0149 29.1738 13.7688C29.4324 13.5225 29.5618 13.223 29.5618 12.8696C29.5618 12.5038 29.4324 12.1975 29.1738 11.9513C28.9154 11.7053 28.6003 11.582 28.2293 11.582C27.8444 11.582 27.5232 11.7053 27.2647 11.9513C27.0059 12.1975 26.877 12.5038 26.877 12.8696C26.877 13.223 27.0059 13.5225 27.2647 13.7688C27.5232 14.0149 27.8444 14.1379 28.2293 14.1379Z" fill="#F0B424"/>
</g>
<defs>
<clipPath id="clip0_277_10917">
<rect width="92.6896" height="24" fill="white"/>
</clipPath>
</defs>
</svg>
