<svg width="56" height="39" viewBox="0 0 56 39" fill="none" xmlns="http://www.w3.org/2000/svg">
<path d="M49.5855 10.7403C49.1983 10.5423 48.7326 10.5778 48.3799 10.8323L28.3124 25.311L15.3885 13.1848C14.9493 12.7729 14.268 12.766 13.8205 13.1686L3.04563 22.8665C2.80158 23.0864 2.66211 23.3994 2.66211 23.7277V36.9729C2.66211 37.6127 3.1809 38.1315 3.82078 38.1315H49.0579C49.6978 38.1315 50.2166 37.6127 50.2166 36.9729V11.7718C50.2166 11.3368 49.9728 10.9385 49.5855 10.7403ZM7.74895 35.8142H4.97944V24.2436L7.74895 21.7509V35.8142ZM12.7512 35.8142H10.0663V19.6653L12.7512 17.2487V35.8142ZM17.7533 35.8142H15.0684V16.0622L17.7533 18.5813V35.8142ZM22.7556 35.8142H20.0707V20.7556L22.7556 23.2748V35.8142ZM27.8095 35.8142H25.0729V25.4492L27.4231 27.6544C27.5377 27.7617 27.6696 27.841 27.8094 27.8934L27.8095 35.8142ZM32.8635 35.8142H30.1267V26.8594L32.8635 24.8848V35.8142ZM37.9176 35.8142H35.1808V23.2128L37.9175 21.2383V35.8142H37.9176ZM42.9716 35.8142H40.2348V19.5663L42.9716 17.5917V35.8142ZM47.8992 35.8142H45.2891V15.9199L47.8992 14.0366V35.8142Z" fill="#012534" fill-opacity="0.7"/>
<path d="M55.8152 0.501257C55.6068 0.190154 55.2498 0.00824387 54.8794 0.0179477L47.5369 0.21608C47.0342 0.229694 46.6058 0.58497 46.4998 1.07654C46.3938 1.56824 46.6374 2.06865 47.0898 2.28821L48.8055 3.12101L28.5264 17.5807L14.708 5.05207C14.0218 4.42986 12.9765 4.4261 12.2859 5.04309L0.604379 15.4776C-0.141368 16.1437 -0.205819 17.2882 0.46027 18.0338C1.12621 18.7794 2.27054 18.844 3.01644 18.1779L13.4828 8.82889L27.1744 21.2424C27.5175 21.5534 27.953 21.7115 28.3907 21.7115C28.7574 21.7115 29.1256 21.6005 29.4414 21.3752L50.8105 6.13861L50.912 7.7425C50.9439 8.2442 51.3142 8.65915 51.8089 8.7475C51.8733 8.75894 51.9377 8.76459 52.0013 8.76459C52.4268 8.76459 52.8213 8.51489 52.9985 8.1153L55.9063 1.55043C56.0581 1.20819 56.0237 0.812214 55.8152 0.501257Z" fill="#012534" fill-opacity="0.7"/>
</svg>
