<svg width="56" height="57" viewBox="0 0 56 57" fill="none" xmlns="http://www.w3.org/2000/svg">
<g clip-path="url(#clip0_201_185)">
<path d="M34.1038 21.7973C34.1038 18.4311 31.3651 15.6924 27.9989 15.6924C24.6325 15.6924 21.8938 18.4311 21.8938 21.7973V24.1237H17.7793V31.1582C17.8361 36.7356 22.4205 41.2732 27.9989 41.2732C33.5772 41.2732 38.1616 36.7356 38.2182 31.1483V24.1237H34.1038L34.1038 21.7973ZM36.2666 26.0753V31.1383C36.2209 35.6506 32.512 39.3217 27.9989 39.3217C23.4857 39.3217 19.7767 35.6506 19.7308 31.1483V26.0753H36.2666ZM23.8454 24.1237V21.7973C23.8454 19.5072 25.7086 17.644 27.9989 17.644C30.289 17.644 32.1522 19.5072 32.1522 21.7973V24.1237H23.8454Z" fill="#012534" fill-opacity="0.7"/>
<path d="M51.9192 23.6966C50.1109 13.7916 42.282 5.96277 32.3772 4.15447C32.0921 1.99213 30.2383 0.317383 27.9993 0.317383C25.7604 0.317383 23.9064 1.99222 23.6214 4.15457C13.7165 5.9629 5.88767 13.7918 4.07943 23.6966C1.91699 23.9817 0.242188 25.8357 0.242188 28.0746C0.242188 30.3136 1.91699 32.1673 4.07943 32.4523C5.88764 42.3572 13.7165 50.1859 23.6214 51.9943C23.9064 54.1566 25.7604 55.8316 27.9993 55.8316C30.2383 55.8316 32.0921 54.1567 32.3772 51.9943C42.282 50.1861 50.111 42.3572 51.9192 32.4525C54.0817 32.1674 55.7565 30.3136 55.7565 28.0746C55.7564 25.8357 54.0816 23.9817 51.9192 23.6966ZM27.9993 2.26895C29.0539 2.26895 29.9534 2.93572 30.3049 3.86881C30.4067 4.13861 30.4649 4.42959 30.4649 4.73454C30.4649 5.12421 30.3716 5.49163 30.21 5.81957C29.8077 6.63596 28.9693 7.20034 27.9993 7.20034C27.0293 7.20034 26.1908 6.63596 25.7886 5.81957C25.6269 5.49163 25.5336 5.12421 25.5336 4.73454C25.5336 4.42962 25.5919 4.13864 25.6936 3.86881C26.0452 2.93572 26.9446 2.26895 27.9993 2.26895ZM3.79371 30.3803C2.86053 30.0285 2.19376 29.1293 2.19376 28.0746C2.19376 27.0199 2.86053 26.1204 3.79371 25.7688C4.0635 25.6671 4.35455 25.6089 4.6595 25.6089C5.0491 25.6089 5.41652 25.7021 5.74447 25.8638C6.5607 26.2661 7.12509 27.1045 7.12509 28.0746C7.12509 29.0446 6.5607 29.8829 5.74447 30.2853C5.41652 30.4468 5.0491 30.5401 4.6595 30.5401C4.35455 30.5401 4.0635 30.4819 3.79371 30.3803ZM27.9993 53.88C26.9446 53.88 26.0452 53.2132 25.6936 52.28C25.5919 52.0102 25.5336 51.7192 25.5336 51.4142C25.5336 51.0246 25.6269 50.6572 25.7886 50.3292C26.1908 49.5129 27.0293 48.9486 27.9993 48.9486C28.9693 48.9486 29.8077 49.5129 30.21 50.3292C30.3716 50.6572 30.4649 51.0246 30.4649 51.4142C30.4649 51.7192 30.4067 52.0102 30.3049 52.28C29.9534 53.2132 29.0539 53.88 27.9993 53.88ZM32.1971 50.0416C31.6182 48.2762 29.9558 46.9971 27.9993 46.9971C26.0428 46.9971 24.3803 48.2762 23.8015 50.0416C14.8301 48.3307 7.74298 41.2438 6.03209 32.2722C7.79758 31.6934 9.07665 30.031 9.07665 28.0746C9.07665 26.1181 7.79758 24.4556 6.03209 23.8767C7.74298 14.9052 14.8301 7.81812 23.8015 6.10722C24.3803 7.87284 26.0428 9.15191 27.9993 9.15191C29.9558 9.15191 31.6182 7.87284 32.1971 6.10722C41.1686 7.81812 48.2557 14.9052 49.9666 23.8767C48.201 24.4556 46.9219 26.1181 46.9219 28.0746C46.9219 30.031 48.201 31.6934 49.9666 32.2722C48.2557 41.2438 41.1686 48.3307 32.1971 50.0416ZM52.205 30.3803C51.9351 30.4819 51.6442 30.5401 51.3393 30.5401C50.9496 30.5401 50.5821 30.4468 50.2542 30.2853C49.4378 29.8829 48.8734 29.0446 48.8734 28.0746C48.8734 27.1047 49.4378 26.2662 50.2542 25.8638C50.5821 25.7021 50.9496 25.6089 51.3393 25.6089C51.6442 25.6089 51.9351 25.6671 52.205 25.7688C53.1381 26.1203 53.8049 27.0199 53.8049 28.0746C53.8049 29.1293 53.1381 30.0288 52.205 30.3803Z" fill="#012534" fill-opacity="0.7"/>
</g>
<defs>
<clipPath id="clip0_201_185">
<rect width="56" height="56" fill="white" transform="translate(0 0.0742188)"/>
</clipPath>
</defs>
</svg>
