<svg width="96" height="73" viewBox="0 0 96 73" fill="none" xmlns="http://www.w3.org/2000/svg">
<g clip-path="url(#clip0_277_11010)">
<mask id="mask0_277_11010" style="mask-type:luminance" maskUnits="userSpaceOnUse" x="-69" y="-25" width="234" height="234">
<path d="M164.331 -24.2285H-68.5137V208.616H164.331V-24.2285Z" fill="white"/>
</mask>
<g mask="url(#mask0_277_11010)">
<path d="M65.793 18.4178C66.4543 18.4178 67.0159 18.1873 67.4762 17.7267C67.937 17.2657 68.1678 16.7047 68.1678 16.043C68.1678 15.358 67.9373 14.7847 67.4762 14.3239C67.0157 13.8633 66.454 13.6328 65.793 13.6328C65.1073 13.6328 64.5347 13.8633 64.0741 14.3239C63.6131 14.7847 63.3828 15.358 63.3828 16.043C63.3828 16.7047 63.6129 17.2657 64.0741 17.7267C64.5345 18.1875 65.107 18.4178 65.793 18.4178Z" fill="#F0B525"/>
</g>
<mask id="mask1_277_11010" style="mask-type:luminance" maskUnits="userSpaceOnUse" x="-69" y="-25" width="234" height="234">
<path d="M164.331 -24.2285H-68.5137V208.616H164.331V-24.2285Z" fill="white"/>
</mask>
<g mask="url(#mask1_277_11010)">
<path d="M38.4114 14.4974C37.9809 14.0629 37.4635 13.8457 36.8591 13.8457H35.8201C34.9721 13.8457 34.172 13.961 33.4199 14.1959C33.0199 14.32 32.6371 14.4753 32.2632 14.6658C32.1894 14.7014 32.1155 14.7412 32.0459 14.7813C31.611 14.2092 30.9327 13.8457 30.1676 13.8457C30.1317 13.8457 30.097 13.8494 30.0616 13.8511C30.0258 13.8494 29.9901 13.8457 29.9536 13.8457C28.7582 13.8457 27.7891 14.8148 27.7891 16.0102V16.271V22.0351V22.5939V32.9916V33.0749C27.7891 34.2704 28.7582 35.2395 29.9536 35.2395C29.961 35.2395 29.968 35.2385 29.9755 35.2383C29.9815 35.2385 29.9873 35.2395 29.9936 35.2395H30.0502C30.6414 35.2395 31.1588 35.0134 31.5979 34.57C32.0329 34.1488 32.2501 33.6212 32.2501 32.9916V23.1569V22.0351C32.2546 21.4986 32.3544 21.0064 32.5503 20.5586C32.6199 20.3947 32.7023 20.235 32.798 20.0843C32.9328 19.8624 33.0981 19.6496 33.2893 19.45C33.5068 19.2284 33.7373 19.0468 33.9809 18.9003C34.5199 18.5589 35.133 18.3948 35.8201 18.3948H36.8591C37.4679 18.3948 37.9898 18.1687 38.4245 17.7254C38.8506 17.2909 39.0636 16.7677 39.0636 16.1469V16.1115C39.0636 15.4908 38.8506 14.9585 38.4245 14.5107L38.4114 14.4974Z" fill="white"/>
</g>
<mask id="mask2_277_11010" style="mask-type:luminance" maskUnits="userSpaceOnUse" x="-69" y="-25" width="234" height="234">
<path d="M164.331 -24.2285H-68.5137V208.616H164.331V-24.2285Z" fill="white"/>
</mask>
<g mask="url(#mask2_277_11010)">
<path d="M23.2757 13.6328H6.62546C5.43003 13.6328 4.46094 14.6019 4.46094 15.7973C4.46094 16.9928 5.43003 17.9619 6.62546 17.9619H12.7861V33.0742C12.7861 34.2696 13.7552 35.2387 14.9506 35.2387C16.146 35.2387 17.1151 34.2696 17.1151 33.0742V17.9621H23.2757C24.4711 17.9621 25.4402 16.993 25.4402 15.7976C25.4402 14.6021 24.4711 13.6328 23.2757 13.6328Z" fill="white"/>
</g>
<mask id="mask3_277_11010" style="mask-type:luminance" maskUnits="userSpaceOnUse" x="-69" y="-25" width="234" height="234">
<path d="M164.331 -24.2285H-68.5137V208.616H164.331V-24.2285Z" fill="white"/>
</mask>
<g mask="url(#mask3_277_11010)">
<path d="M91.2863 26.5743C91.0232 25.424 90.0336 24.5275 88.8182 24.5066C88.5038 24.4996 88.2011 24.5508 87.9217 24.6486V24.6859C86.9065 25.0375 86.1754 25.9991 86.1754 27.1331V31.9343C86.1754 33.1009 85.7374 34.165 85.0158 34.973C84.6619 35.3013 84.3476 35.569 84.0612 35.7833C84.0586 35.7879 84.0542 35.7902 84.0493 35.7926C83.4604 36.1651 82.7805 36.4073 82.0491 36.4771C81.9281 36.4888 81.8047 36.4958 81.6789 36.4981C79.1318 36.5354 77.0476 34.4048 77.0476 31.8575V4.59372C77.0476 3.99531 76.8055 3.45278 76.4143 3.06393C75.9882 2.63782 75.3874 2.38868 74.7308 2.43525C73.5829 2.51441 72.7191 3.51565 72.7191 4.6659V31.4197C72.7191 36.4585 76.7331 40.5612 81.7392 40.7009H81.7627C82.1726 40.7266 82.608 40.7103 83.0688 40.6427C84.1748 40.517 85.2226 40.1957 86.1752 39.716V45.898C85.97 47.7445 85.5323 49.7656 84.6756 51.5864C84.0819 52.732 83.2646 53.9801 82.1353 55.1699L80.3939 56.7323C80.1401 56.9162 79.8651 57.1305 79.5626 57.3843C76.3098 60.1039 69.7505 60.3973 69.0403 60.4206C51.3187 60.8164 52.4154 57.0303 53.8591 55.2724C53.9103 55.2095 53.9592 55.149 54.0125 55.0907C54.1965 54.8882 54.4342 54.6716 54.7064 54.4341C54.7134 54.4271 54.7204 54.4225 54.7273 54.4178C54.7343 54.4132 54.739 54.4085 54.7416 54.4038H54.7439C55.5612 53.7076 56.6718 52.8927 57.552 52.1127C58.1155 51.6097 58.6606 51.0625 59.2427 50.5363C59.2427 50.5363 59.2473 50.5316 59.2587 50.5247C59.7826 50.1335 72.9058 40.2446 56.9978 38.1676C56.9978 38.1676 54.7648 37.8649 54.3574 37.2385C54.1082 36.8567 53.0364 36.2352 54.8985 35.2384C55.0256 35.1704 54.7471 35.2009 54.5327 35.2384L47.1254 35.2391L46.8509 35.2212C47.2721 34.4337 48.0964 33.4238 49.6937 32.6871C49.8269 32.6303 50.2923 32.4382 50.7587 32.3257C51.4407 32.2394 52.2818 32.2231 52.5558 31.3252C52.6103 31.1524 52.5805 30.9673 52.4769 30.8192C52.1879 30.4069 51.8152 30.103 51.4005 29.8562C50.3114 29.197 48.9262 28.9081 47.9755 27.9969C47.5411 27.5771 47.5904 26.9154 48.0673 26.5426L48.0745 26.5377C48.4424 26.2513 48.8794 26.0809 49.3337 25.9351C50.84 25.4438 51.9486 24.1573 52.1782 22.5896C52.798 23.0117 53.2991 23.4264 53.5981 23.9056L53.6055 23.918C54.077 24.6784 53.8302 25.6659 53.0425 26.0906C52.4769 26.3945 51.8326 26.5351 51.3115 26.8388L51.3015 26.8439C50.6588 27.1657 50.5788 28.078 51.1809 28.4708C51.5306 28.6987 51.9698 28.7898 52.3803 28.9155C53.83 29.35 55.2717 29.8068 56.6274 30.476C57.0791 30.7007 57.5261 30.9501 57.9557 31.2314C58.4766 31.5697 58.9384 31.9353 58.9977 32.5106C59.0373 32.876 58.8843 33.239 58.6249 33.503C57.773 34.3648 56.5286 34.4907 55.462 34.9574C55.2866 35.0314 55.1188 35.118 54.9581 35.2167H59.0396C59.8965 35.2167 60.5678 34.6586 60.8099 33.9352C60.9531 33.5154 60.9434 33.0341 60.741 32.5795C60.0248 30.9797 59.2001 29.4266 58.4447 27.8463C57.8191 26.5424 53.6616 18.2191 51.763 14.4207C51.3767 13.6481 50.2733 13.6537 49.8937 14.4293L40.983 32.6513C40.9436 32.8143 40.9238 32.9772 40.9238 33.1402C40.9238 33.4068 40.9755 33.666 41.0719 33.9082C41.3807 34.8118 42.2077 35.0908 42.6792 35.1772L43.0299 35.1797L46.7806 35.2167L46.6646 35.6093C46.7079 35.5062 46.7587 35.396 46.8183 35.281L46.8185 35.2815C46.5023 35.9176 45.5712 38.3075 48.1583 40.3603C48.2235 40.4129 48.2915 40.4651 48.3616 40.517C48.3686 40.5219 48.3744 40.5272 48.3814 40.5321C48.4037 40.5484 48.4261 40.5645 48.4487 40.5806C48.4519 40.5829 48.4545 40.5845 48.4575 40.5866C48.5395 40.6448 48.6249 40.7026 48.7134 40.7596C48.7402 40.7771 48.7665 40.7936 48.7924 40.8099C49.9114 41.5115 51.5548 42.122 53.9427 42.5195C54.4109 42.5963 54.8857 42.6359 55.3584 42.6522C57.3492 42.722 63.4218 43.5184 50.0867 51.2022H50.0844C49.8539 51.3908 49.6513 51.5585 49.4788 51.7028C49.1318 51.9939 48.9153 52.1825 48.8806 52.2128L48.878 52.2151C48.7945 52.2896 48.7127 52.3688 48.6336 52.448C48.6219 52.4573 48.6126 52.4689 48.6033 52.4782C48.5334 52.5481 48.4659 52.6179 48.4007 52.6901C48.3844 52.7064 48.3704 52.7227 48.3567 52.739C48.2959 52.8065 48.2354 52.8741 48.1772 52.9462C48.1632 52.9625 48.1492 52.9788 48.1353 52.9975C48.0771 53.0673 48.0212 53.1418 47.9653 53.214C47.9606 53.2187 47.9583 53.2233 47.9537 53.2303C47.9257 53.2652 47.9024 53.3002 47.8768 53.3374C47.7976 53.4469 47.7208 53.5563 47.6486 53.6704C47.623 53.7146 47.5974 53.7612 47.5718 53.8031C47.5462 53.845 47.5206 53.8869 47.4973 53.9288C47.4484 54.0196 47.3972 54.1058 47.3529 54.1989L47.3459 54.2129C47.3436 54.2176 47.3413 54.2222 47.3389 54.2269C47.2784 54.3456 47.2202 54.469 47.1643 54.5948C47.162 54.5971 47.1597 54.5994 47.1597 54.6041C47.1573 54.6064 47.1573 54.6111 47.155 54.6134C47.1108 54.7112 47.0688 54.809 47.0269 54.9091C47.0223 54.9208 47.0176 54.9347 47.0106 54.9464C46.829 55.3911 46.673 55.8615 46.5636 56.3458C46.5612 56.3528 46.5612 56.3621 46.5589 56.3691C46.5566 56.3737 46.5566 56.3784 46.5566 56.383C46.524 56.5297 46.496 56.679 46.4728 56.8301C46.4704 56.8347 46.4704 56.8417 46.4681 56.8487C46.4681 56.8557 46.4681 56.8627 46.4658 56.8697C46.4471 56.9977 46.4308 57.1258 46.4192 57.2562V57.2702C46.4169 57.2725 46.4169 57.2748 46.4169 57.2795C46.4099 57.3586 46.4052 57.4401 46.4006 57.5193V57.5635C46.3982 57.6334 46.3959 57.7033 46.3959 57.7708V57.8197C46.3959 57.9012 46.3982 57.9827 46.4006 58.0642C46.4006 58.0735 46.4029 58.0828 46.4029 58.0921C46.4076 58.1643 46.4122 58.2365 46.4192 58.3086C46.4215 58.3273 46.4215 58.3459 46.4239 58.3645C46.4402 58.5275 46.4634 58.6905 46.496 58.8535C46.5007 58.8721 46.503 58.8908 46.5077 58.9071C46.524 58.9839 46.5403 59.0607 46.5612 59.1376C46.5612 59.1422 46.5636 59.1469 46.5636 59.1539C46.5869 59.2354 46.6101 59.3169 46.6358 59.3984C46.6404 59.4147 46.6474 59.431 46.652 59.4496C46.6753 59.5194 46.7009 59.5893 46.7266 59.6592C46.7312 59.6731 46.7359 59.6848 46.7405 59.6987C46.7708 59.7779 46.8057 59.8594 46.8406 59.9409C46.8476 59.9525 46.8546 59.9665 46.8616 59.9805C46.8919 60.0503 46.9268 60.1202 46.9617 60.19C46.9687 60.204 46.978 60.2203 46.985 60.2366C47.0269 60.3158 47.0712 60.3973 47.1201 60.4764C47.1247 60.4834 47.1294 60.4927 47.134 60.4997C47.1783 60.5719 47.2225 60.6441 47.2714 60.7163C47.2831 60.7326 47.2924 60.7489 47.304 60.7652C47.4135 60.9235 47.5322 61.0818 47.6626 61.2378C47.6766 61.2518 47.6882 61.2681 47.7022 61.2821C47.765 61.3589 47.8326 61.4334 47.9024 61.5079C47.9048 61.5103 47.9071 61.5103 47.9092 61.5149C47.9816 61.5918 48.0584 61.6709 48.1397 61.7478C48.1513 61.7594 48.1653 61.7711 48.1793 61.785C48.2517 61.8526 48.3285 61.9224 48.4075 61.9899C48.4144 61.9992 48.4235 62.0062 48.4328 62.0155C48.5216 62.09 48.6145 62.1669 48.7078 62.2414C48.7195 62.2507 48.7288 62.2577 48.7404 62.267C48.8266 62.3345 48.9174 62.4021 49.0105 62.4673C49.0245 62.4766 49.0385 62.4882 49.0501 62.4975C49.1549 62.572 49.2643 62.6465 49.3761 62.7187C49.3761 62.7187 49.3761 62.7211 49.3784 62.7211C49.4855 62.7909 49.5971 62.8608 49.7135 62.9283C49.7298 62.9399 49.7484 62.9516 49.767 62.9609C50.0046 63.1006 50.256 63.238 50.5238 63.3707C50.5424 63.3823 50.5611 63.3916 50.582 63.401C50.8521 63.5337 51.1385 63.6641 51.4412 63.7898C51.4622 63.7991 51.4831 63.8061 51.5041 63.8154C51.6438 63.8736 51.7881 63.9295 51.9348 63.9854C51.949 63.9901 51.9628 63.997 51.9791 64.0017C52.1397 64.0646 52.3051 64.1228 52.475 64.181C52.496 64.188 52.5146 64.195 52.5332 64.2019C52.6846 64.2532 52.8406 64.3044 52.9966 64.3533C53.0269 64.3626 53.0571 64.3719 53.0851 64.3812C53.2644 64.4371 53.4437 64.4907 53.6299 64.5442C53.6441 64.5489 53.6579 64.5512 53.6719 64.5559C53.8397 64.6024 54.0118 64.649 54.1864 64.6956C54.2307 64.7072 54.2775 64.7189 54.3215 64.7305C54.5124 64.7794 54.708 64.826 54.9085 64.8725C56.0168 64.9983 57.4372 65.1403 59.0718 65.2614C67.9827 65.911 80.0325 65.9157 86.4404 59.233C87.898 57.8709 89.1763 56.1246 89.9936 53.8916C89.9959 53.8869 89.9959 53.8799 89.9985 53.8776C90.1589 53.4399 90.3012 52.9812 90.422 52.5062C90.4313 52.4666 90.4432 52.427 90.4523 52.3874C91.2253 49.5444 91.3467 47.2066 91.356 46.9295V46.9039V27.182C91.3564 26.9745 91.3329 26.7696 91.2863 26.5743Z" fill="white"/>
</g>
<mask id="mask4_277_11010" style="mask-type:luminance" maskUnits="userSpaceOnUse" x="-69" y="-25" width="234" height="234">
<path d="M164.331 -24.2285H-68.5137V208.616H164.331V-24.2285Z" fill="white"/>
</mask>
<g mask="url(#mask4_277_11010)">
<path d="M65.7762 19.375C64.628 19.375 63.6992 20.304 63.6992 21.452V33.6484C63.6992 34.7963 64.628 35.7277 65.7762 35.7277C66.349 35.7277 66.8706 35.4948 67.2454 35.1176C67.6203 34.7427 67.8532 34.2235 67.8532 33.6484V21.452C67.8532 20.304 66.9241 19.375 65.7762 19.375Z" fill="white"/>
</g>
</g>
<defs>
<clipPath id="clip0_277_11010">
<rect width="95.0259" height="73" fill="white" transform="translate(0.710938)"/>
</clipPath>
</defs>
</svg>
