<svg width="20" height="20" viewBox="0 0 20 20" fill="none" xmlns="http://www.w3.org/2000/svg">
<g clip-path="url(#clip0_206_770)">
<path fill-rule="evenodd" clip-rule="evenodd" d="M17.1232 5.40245C16.9726 5.5201 16.8879 5.70245 16.8973 5.89304C16.9032 6.06363 16.9079 6.23421 16.9079 6.40715C16.9079 11.9319 13.0173 17.6483 6.50673 17.6483C5.23379 17.6483 3.97967 17.3954 2.80085 16.9072C4.22203 16.6719 5.57614 16.0483 6.70674 15.0966C6.89379 14.9377 6.96319 14.6813 6.88203 14.4507C6.80085 14.2201 6.58438 14.0636 6.3385 14.0577C5.24085 14.0354 4.24672 13.4048 3.66791 12.4201C4.06437 12.4083 4.49144 12.346 4.81144 12.253C5.07027 12.1777 5.24438 11.9366 5.23614 11.6683C5.22674 11.3989 5.03614 11.1707 4.77261 11.113C3.60438 10.8601 2.74438 9.89657 2.45379 8.57304C2.78791 8.6401 3.1032 8.66127 3.27733 8.66597C3.53379 8.69421 3.77027 8.51539 3.85496 8.26952C3.93851 8.02481 3.85261 7.75304 3.64203 7.60128C2.82909 7.01539 1.9585 5.92245 1.9585 4.61773C1.9585 4.29657 1.9985 3.97892 2.07496 3.67186C4.10791 5.93421 6.88203 7.30009 9.82319 7.45892C10.0209 7.4695 10.1844 7.39186 10.3032 7.25304C10.422 7.11421 10.4691 6.92597 10.4314 6.74715C10.3726 6.4801 10.3432 6.20363 10.3432 5.92363C10.3432 3.95539 11.8126 2.35421 13.6185 2.35421C14.5267 2.35421 15.3714 2.74833 15.995 3.46598C16.1338 3.62598 16.3526 3.7001 16.5597 3.65539C16.8585 3.59186 17.1526 3.51186 17.442 3.41421C17.2703 3.58833 17.0809 3.74363 16.875 3.87657C16.6432 4.02597 16.5467 4.31421 16.6409 4.57304C16.735 4.83186 17.0009 4.98833 17.2691 4.95421C17.422 4.93421 17.5738 4.91068 17.7244 4.88128C17.5338 5.06597 17.3338 5.2401 17.1232 5.40245ZM19.8491 3.32245C19.675 3.12833 19.395 3.07422 19.1573 3.18481C19.115 3.20481 19.0726 3.22481 19.0291 3.24481C19.2067 2.92951 19.3514 2.59186 19.4561 2.23774C19.5267 2.00245 19.4432 1.74833 19.2467 1.6001C19.0491 1.45304 18.7832 1.44128 18.575 1.57421C17.9679 1.96363 17.315 2.24951 16.6326 2.42951C15.8173 1.62951 14.7373 1.17773 13.6185 1.17773C11.1644 1.17773 9.16673 3.30715 9.16673 5.92363C9.16673 6.02245 9.16909 6.12128 9.17496 6.21892C6.52086 5.87539 4.06791 4.42715 2.36086 2.17186C2.24086 2.01304 2.04675 1.93186 1.84792 1.94128C1.64792 1.95657 1.4691 2.07186 1.3738 2.24833C0.986745 2.96597 0.782037 3.78597 0.782037 4.61774C0.782037 5.5201 1.08086 6.33657 1.51381 7.02128C1.31145 7.11539 1.17027 7.31892 1.17027 7.55657V7.61068C1.17027 9.06715 1.6891 10.3389 2.56086 11.1989C2.46675 11.2295 2.38086 11.2848 2.31145 11.3589C2.24267 11.4339 2.19448 11.5255 2.17159 11.6247C2.14871 11.7238 2.1519 11.8272 2.18086 11.9248C2.60557 13.3519 3.61615 14.4472 4.87263 14.9436C3.59263 15.6683 2.0738 15.9554 0.659683 15.7848C0.383214 15.7436 0.133797 15.9083 0.0385058 16.1601C-0.0579629 16.413 0.0314538 16.7001 0.254975 16.853C2.12675 18.1425 4.2891 18.8248 6.50675 18.8248C13.7538 18.8248 18.0844 12.5107 18.0844 6.40715C18.0844 6.31775 18.0832 6.22951 18.0809 6.14128C18.795 5.54597 19.4091 4.83539 19.9115 4.02597C20.0491 3.80363 20.0244 3.51657 19.8491 3.32245Z" fill="white" fill-opacity="0.6"/>
</g>
<defs>
<clipPath id="clip0_206_770">
<rect width="20" height="20" fill="white"/>
</clipPath>
</defs>
</svg>
