<svg width="131" height="43" viewBox="0 0 131 43" fill="none" xmlns="http://www.w3.org/2000/svg">
<g clip-path="url(#clip0_282_11110)">
<mask id="mask0_282_11110" style="mask-type:luminance" maskUnits="userSpaceOnUse" x="-34" y="-25" width="193" height="193">
<path d="M158.013 -24.3496H-33.6738V167.337H158.013V-24.3496Z" fill="white"/>
</mask>
<g mask="url(#mask0_282_11110)">
<path d="M49.9833 25.4242C50.4633 25.4242 50.8771 25.2542 51.2244 24.9145C51.5641 24.5748 51.7341 24.1648 51.7341 23.6843C51.7341 23.2043 51.5641 22.7943 51.2244 22.4544C50.8771 22.1073 50.4633 21.9336 49.9833 21.9336H39.079C38.5913 21.9336 38.1777 22.1073 37.8378 22.4544C37.498 22.7943 37.3281 23.2043 37.3281 23.6843V36.7717C37.3281 37.2593 37.498 37.6732 37.8378 38.0129C38.1777 38.3527 38.5913 38.5226 39.079 38.5226H49.9833C50.4633 38.5226 50.8771 38.3527 51.2244 38.0129C51.5641 37.6732 51.7341 37.2593 51.7341 36.7717C51.7341 36.2915 51.5641 35.8817 51.2244 35.5416C50.8771 35.202 50.4633 35.0319 49.9833 35.0319H40.8189V31.9734H47.8002C48.2803 31.9734 48.694 31.8034 49.0413 31.4637C49.381 31.124 49.551 30.714 49.551 30.2334C49.551 29.746 49.381 29.3325 49.0413 28.9925C48.694 28.6528 48.2803 28.4828 47.8002 28.4828H40.8189V25.4242H49.9833Z" fill="white"/>
</g>
<mask id="mask1_282_11110" style="mask-type:luminance" maskUnits="userSpaceOnUse" x="-34" y="-25" width="193" height="193">
<path d="M158.013 -24.3496H-33.6738V167.337H158.013V-24.3496Z" fill="white"/>
</mask>
<g mask="url(#mask1_282_11110)">
<path d="M67.0048 21.9336C66.5242 21.9336 66.114 22.1071 65.7745 22.4542C65.4347 22.7943 65.2648 23.2043 65.2648 23.6843V31.9511L57.4413 22.5652C57.2048 22.2846 56.9094 22.0961 56.5548 22.0001C56.2002 21.9039 55.8492 21.9188 55.502 22.0444C55.1547 22.1699 54.8777 22.3806 54.6709 22.676C54.4566 22.9791 54.3496 23.3151 54.3496 23.6843V36.7717C54.3496 37.2593 54.5194 37.6732 54.8593 38.0129C55.199 38.3525 55.6128 38.5226 56.1005 38.5226C56.5805 38.5226 56.9905 38.3527 57.3305 38.0129C57.6702 37.6732 57.8402 37.2593 57.8402 36.7717V28.5048L65.6637 37.8909C66.0111 38.3119 66.4581 38.5226 67.0048 38.5226C67.2114 38.5226 67.4107 38.4894 67.603 38.4229C67.95 38.2973 68.2273 38.0832 68.434 37.78C68.6481 37.4773 68.7556 37.1413 68.7556 36.7717V23.6843C68.7556 23.2043 68.5854 22.7943 68.2455 22.4542C67.8984 22.1069 67.4846 21.9336 67.0048 21.9336Z" fill="white"/>
</g>
<mask id="mask2_282_11110" style="mask-type:luminance" maskUnits="userSpaceOnUse" x="-34" y="-25" width="193" height="193">
<path d="M158.013 -24.3496H-33.6738V167.337H158.013V-24.3496Z" fill="white"/>
</mask>
<g mask="url(#mask2_282_11110)">
<path d="M79.66 25.4242C80.9825 25.4242 82.1129 25.8935 83.051 26.8316C83.3906 27.1789 83.8047 27.3526 84.2922 27.3526C84.7723 27.3526 85.1823 27.1789 85.5224 26.8316C85.8619 26.4919 86.0321 26.0819 86.0321 25.6015C86.0321 25.1213 85.8619 24.7113 85.5224 24.3715C83.9044 22.7462 81.9503 21.9336 79.66 21.9336C77.3697 21.9336 75.4157 22.7462 73.7979 24.3715C72.1802 25.9822 71.3711 27.9361 71.3711 30.2334C71.3711 32.5237 72.1802 34.4778 73.7979 36.0958C75.4157 37.7136 77.3697 38.5226 79.66 38.5226C81.9503 38.5226 83.9044 37.7136 85.5224 36.0958C85.8619 35.7561 86.0321 35.3421 86.0321 34.8546C86.0321 34.3745 85.8619 33.9642 85.5224 33.6246C85.1823 33.2849 84.7723 33.1147 84.2922 33.1147C83.8047 33.1147 83.3908 33.2849 83.051 33.6246C82.1127 34.5629 80.9825 35.0319 79.66 35.0319C78.3376 35.0319 77.2072 34.5629 76.2691 33.6246C75.3308 32.6865 74.8617 31.5563 74.8617 30.2334C74.8617 28.9037 75.3308 27.7699 76.2691 26.8316C77.2072 25.8933 78.3376 25.4242 79.66 25.4242Z" fill="white"/>
</g>
<mask id="mask3_282_11110" style="mask-type:luminance" maskUnits="userSpaceOnUse" x="-34" y="-25" width="193" height="193">
<path d="M158.013 -24.3496H-33.6738V167.337H158.013V-24.3496Z" fill="white"/>
</mask>
<g mask="url(#mask3_282_11110)">
<path d="M106.05 36.1021C106.306 35.8989 106.544 35.7103 106.815 35.495C106.615 34.7655 106.414 34.0325 106.218 33.32C105.25 33.0083 104.935 33.0054 104.539 33.311C104.308 34.3829 104.033 35.4661 103.929 36.59C103.901 36.8853 103.906 37.1788 103.957 37.4738C104.079 38.1825 104.365 38.4704 105.011 38.4798C105.703 38.4899 106.396 38.4821 107.129 38.4821C107.431 37.5123 107.048 36.6264 106.05 36.1021Z" fill="white"/>
</g>
<mask id="mask4_282_11110" style="mask-type:luminance" maskUnits="userSpaceOnUse" x="-34" y="-25" width="193" height="193">
<path d="M158.013 -24.3496H-33.6738V167.337H158.013V-24.3496Z" fill="white"/>
</mask>
<g mask="url(#mask4_282_11110)">
<path d="M33.8871 22.5814C33.5312 22.2289 33.1032 22.0527 32.6032 22.0527H31.7437C31.0425 22.0527 30.3808 22.1463 29.7586 22.3368C29.4277 22.4376 29.1113 22.5634 28.8021 22.7181C28.7409 22.7468 28.6798 22.7792 28.6223 22.8116C28.2627 22.3477 27.7016 22.0527 27.0687 22.0527C25.9826 22.0527 25.1016 22.9339 25.1016 24.0198V28.6951V29.1482V37.5815C25.1016 38.0921 25.285 38.52 25.6446 38.8616C25.7813 38.9982 25.9251 39.1061 26.0797 39.1924C26.3351 39.3327 26.6155 39.4046 26.9249 39.4046H26.9715C27.4607 39.4046 27.8887 39.2213 28.2517 38.8616C28.6115 38.52 28.7913 38.0921 28.7913 37.5815V29.6048V28.6951C28.7948 28.2599 28.8776 27.8607 29.0394 27.4974C29.0969 27.3644 29.1653 27.235 29.2443 27.1127C29.3559 26.9329 29.4925 26.7602 29.6509 26.5984C29.8307 26.4186 30.0212 26.2712 30.2225 26.1525C30.6685 25.8755 31.1755 25.7425 31.7437 25.7425H32.6032C33.1068 25.7425 33.5383 25.5591 33.8979 25.1995C34.2504 24.8471 34.4266 24.4227 34.4266 23.9192V23.8904C34.4266 23.3869 34.2504 22.9554 33.8979 22.5921L33.8871 22.5814Z" fill="white"/>
</g>
<mask id="mask5_282_11110" style="mask-type:luminance" maskUnits="userSpaceOnUse" x="-34" y="-25" width="193" height="193">
<path d="M158.013 -24.3496H-33.6738V167.337H158.013V-24.3496Z" fill="white"/>
</mask>
<g mask="url(#mask5_282_11110)">
<path d="M112.157 14.0844C111.984 13.2678 111.237 13.1202 110.499 13.0282C109.456 10.9388 107.873 10.197 105.982 10.8967C104.246 11.5427 103.174 13.5688 103.765 15.1023C103.197 17.1246 103.838 18.8881 105.524 19.8983C106.882 20.711 108.287 20.7839 109.651 19.9615C111.026 19.1315 111.528 17.8932 111.379 16.4192C111.344 16.0837 111.237 15.7598 111.15 15.3879C111.817 15.1962 112.308 14.8128 112.157 14.0844ZM105.022 14.8052C104.924 14.1745 104.874 13.6129 104.991 13.0493C105.231 11.8704 106.187 11.0673 107.368 11.0654C108.578 11.0634 109.732 11.9222 109.992 13.0493C108.129 13.172 106.586 13.9886 105.022 14.8052Z" fill="white"/>
</g>
<mask id="mask6_282_11110" style="mask-type:luminance" maskUnits="userSpaceOnUse" x="-34" y="-25" width="193" height="193">
<path d="M158.013 -24.3496H-33.6738V167.337H158.013V-24.3496Z" fill="white"/>
</mask>
<g mask="url(#mask6_282_11110)">
<path d="M21.6053 22.4145C21.2344 22.094 20.7822 21.9316 20.2612 21.9316C19.7379 21.9316 19.3229 22.0656 19.0279 22.3294C18.7499 22.5774 18.5498 22.8671 18.4329 23.1903C18.3309 23.4717 18.2268 23.8458 18.116 24.3275L16.2041 32.0759L14.0607 24.8842C13.8517 24.1876 13.6811 23.6762 13.5533 23.3634C13.4068 23.0059 13.1477 22.6767 12.7829 22.3848C12.4064 22.0842 11.8881 21.9316 11.2419 21.9316C10.608 21.9316 10.091 22.0762 9.70516 22.3616C9.326 22.6424 9.0471 22.984 8.8763 23.3766C8.72276 23.7289 8.55523 24.2234 8.36507 24.8857L6.24386 32.07L4.33447 24.3323C4.16272 23.5966 3.96413 23.0448 3.7272 22.6445C3.44657 22.1714 2.92883 21.9316 2.18815 21.9316C1.65756 21.9316 1.2023 22.0969 0.83522 22.4226C0.446861 22.7662 0.25 23.2 0.25 23.712C0.25 24.0665 0.337792 24.5501 0.517211 25.1865L3.32428 35.509C3.40939 35.8184 3.506 36.1542 3.6143 36.5161C3.73142 36.9081 3.88592 37.2541 4.07339 37.5445C4.27524 37.8574 4.54149 38.1018 4.86525 38.2714C5.18268 38.4378 5.58254 38.5223 6.05352 38.5223C6.64391 38.5223 7.13137 38.3786 7.50248 38.0945C7.86553 37.8169 8.12642 37.492 8.27785 37.1293C8.4105 36.8111 8.58206 36.3089 8.80327 35.5911L11.24 27.4789L13.6457 35.5899L13.647 35.5941C13.8751 36.331 14.0484 36.8397 14.1768 37.1493C14.3248 37.507 14.5846 37.8273 14.9486 38.1008C15.3195 38.3805 15.8062 38.5223 16.3958 38.5223C17.0194 38.5223 17.5187 38.3751 17.8804 38.0841C18.2312 37.8012 18.485 37.4631 18.6347 37.0795C18.767 36.7414 18.9272 36.2276 19.1252 35.5079L21.9327 25.1855C22.1121 24.5171 22.1993 24.0352 22.1993 23.712C22.1993 23.1918 21.9996 22.7549 21.6053 22.4145Z" fill="white"/>
</g>
<mask id="mask7_282_11110" style="mask-type:luminance" maskUnits="userSpaceOnUse" x="-34" y="-25" width="193" height="193">
<path d="M158.013 -24.3496H-33.6738V167.337H158.013V-24.3496Z" fill="white"/>
</mask>
<g mask="url(#mask7_282_11110)">
<path d="M118.454 19.5957C118.451 19.6016 118.448 19.6075 118.443 19.6136C118.446 19.6075 118.449 19.6016 118.452 19.5957H118.454Z" fill="white"/>
</g>
<mask id="mask8_282_11110" style="mask-type:luminance" maskUnits="userSpaceOnUse" x="-34" y="-25" width="193" height="193">
<path d="M158.013 -24.3496H-33.6738V167.337H158.013V-24.3496Z" fill="white"/>
</mask>
<g mask="url(#mask8_282_11110)">
<path d="M120.432 15.4931C120.423 15.5065 120.411 15.5219 120.402 15.5372C120.413 15.5219 120.425 15.5065 120.434 15.4931C120.455 15.4624 120.476 15.4356 120.494 15.4088C120.474 15.4356 120.451 15.4624 120.432 15.4931ZM119.928 15.5314V15.5334L120.164 15.61L119.928 15.5314ZM120.062 15.1193C120.057 15.1385 120.051 15.1555 120.047 15.1749C120.053 15.1557 120.059 15.1385 120.064 15.1193H120.062ZM119.685 15.0005L119.867 15.0599L119.869 15.058L119.685 15.0005ZM119.813 17.0419C119.802 17.0592 119.79 17.0745 119.779 17.0899C119.792 17.0745 119.804 17.0592 119.815 17.0419H119.813ZM119.526 17.3793H119.529C119.552 17.3563 119.574 17.3295 119.598 17.3026C119.574 17.3295 119.551 17.3563 119.526 17.3793ZM119.441 14.9219C119.437 14.9391 119.433 14.9545 119.43 14.9698C119.435 14.9545 119.439 14.9391 119.443 14.9219H119.441ZM119.38 15.1289C119.361 15.1941 119.334 15.2631 119.307 15.334H119.309C119.334 15.2612 119.363 15.196 119.382 15.1289C119.388 15.1116 119.393 15.0925 119.399 15.0733C119.393 15.0906 119.386 15.1097 119.38 15.1289ZM119.317 17.318C119.299 17.3505 119.282 17.3793 119.269 17.41C119.284 17.3793 119.301 17.3505 119.319 17.318C119.332 17.2911 119.345 17.2643 119.361 17.2355C119.345 17.2643 119.33 17.2911 119.317 17.318ZM118.889 17.1742H118.887V17.1761L119.205 17.276L118.889 17.1742ZM119.181 16.8368C119.167 16.8541 119.156 16.8694 119.144 16.8847C119.158 16.8694 119.169 16.8522 119.183 16.8368H119.181ZM119.11 14.9621V14.964C119.121 14.9545 119.131 14.9449 119.14 14.9334C119.131 14.943 119.121 14.9525 119.11 14.9621ZM119.154 17.6304C119.146 17.6438 119.14 17.6572 119.136 17.6687C119.142 17.6572 119.148 17.6438 119.156 17.6304C119.158 17.6266 119.158 17.6247 119.16 17.6208C119.158 17.6247 119.156 17.6266 119.154 17.6304ZM119.106 17.7358C119.104 17.7397 119.102 17.7435 119.102 17.7473C119.104 17.7433 119.106 17.7416 119.108 17.7378C119.108 17.7339 119.109 17.7301 119.111 17.7224C119.108 17.7263 119.108 17.732 119.106 17.7358ZM118.694 15.1385V15.1404L118.895 15.2017V15.1998L118.694 15.1385ZM118.726 17.0496C118.774 16.9614 118.828 16.8656 118.882 16.764C118.824 16.8637 118.772 16.9614 118.726 17.0496ZM118.406 16.8023C118.431 16.7774 118.454 16.7486 118.477 16.7237C118.489 16.7103 118.5 16.695 118.512 16.6796C118.477 16.7218 118.441 16.7621 118.406 16.8023ZM118.546 16.6375C118.534 16.6528 118.523 16.6662 118.511 16.6796C118.523 16.6643 118.536 16.6509 118.548 16.6375H118.546ZM118.492 17.5135C118.494 17.5096 118.494 17.5077 118.496 17.5058C118.496 17.5039 118.498 17.4981 118.498 17.4943C118.496 17.502 118.494 17.5077 118.492 17.5135ZM118.249 16.9691H118.251C118.253 16.9653 118.255 16.9633 118.257 16.9595C118.253 16.9633 118.251 16.9672 118.249 16.9691ZM117.887 17.2643V17.2662C117.889 17.2662 117.889 17.2643 117.891 17.2624C117.889 17.2624 117.889 17.2624 117.887 17.2643Z" fill="white"/>
</g>
<mask id="mask9_282_11110" style="mask-type:luminance" maskUnits="userSpaceOnUse" x="-34" y="-25" width="193" height="193">
<path d="M158.013 -24.3496H-33.6738V167.337H158.013V-24.3496Z" fill="white"/>
</mask>
<g mask="url(#mask9_282_11110)">
<path d="M105.572 28.3885C105.534 28.3885 105.493 28.3847 105.453 28.3808V28.3789C105.493 28.3827 105.534 28.3866 105.572 28.3885Z" fill="white"/>
</g>
<mask id="mask10_282_11110" style="mask-type:luminance" maskUnits="userSpaceOnUse" x="-34" y="-25" width="193" height="193">
<path d="M158.013 -24.3496H-33.6738V167.337H158.013V-24.3496Z" fill="white"/>
</mask>
<g mask="url(#mask10_282_11110)">
<path d="M116.615 12.4023H116.63V12.4097C116.623 12.4023 116.619 12.4023 116.615 12.4023Z" fill="white"/>
</g>
<mask id="mask11_282_11110" style="mask-type:luminance" maskUnits="userSpaceOnUse" x="-34" y="-25" width="193" height="193">
<path d="M158.013 -24.3496H-33.6738V167.337H158.013V-24.3496Z" fill="white"/>
</mask>
<g mask="url(#mask11_282_11110)">
<path d="M119.702 13.2093C119.797 13.24 119.891 13.2707 119.987 13.3014C119.891 13.2726 119.797 13.2419 119.702 13.2132C119.606 13.1825 119.512 13.1538 119.416 13.125C119.51 13.1538 119.606 13.1825 119.702 13.2093Z" fill="white"/>
</g>
<mask id="mask12_282_11110" style="mask-type:luminance" maskUnits="userSpaceOnUse" x="-34" y="-25" width="193" height="193">
<path d="M158.013 -24.3496H-33.6738V167.337H158.013V-24.3496Z" fill="white"/>
</mask>
<g mask="url(#mask12_282_11110)">
<path d="M122.718 14.2789H122.703V14.2715C122.71 14.2789 122.714 14.2789 122.718 14.2789Z" fill="white"/>
</g>
<mask id="mask13_282_11110" style="mask-type:luminance" maskUnits="userSpaceOnUse" x="-34" y="-25" width="193" height="193">
<path d="M158.013 -24.3496H-33.6738V167.337H158.013V-24.3496Z" fill="white"/>
</mask>
<g mask="url(#mask13_282_11110)">
<path d="M119.165 28.6364L118.856 24.3914L118.844 24.2129L118.858 24.3914L119.165 28.6364Z" fill="white"/>
</g>
<mask id="mask14_282_11110" style="mask-type:luminance" maskUnits="userSpaceOnUse" x="-34" y="-25" width="193" height="193">
<path d="M158.013 -24.3496H-33.6738V167.337H158.013V-24.3496Z" fill="white"/>
</mask>
<g mask="url(#mask14_282_11110)">
<path d="M105.455 28.3789V28.3808C105.495 28.3847 105.536 28.3885 105.574 28.3885C105.535 28.3866 105.495 28.3827 105.455 28.3789Z" fill="white"/>
</g>
<mask id="mask15_282_11110" style="mask-type:luminance" maskUnits="userSpaceOnUse" x="-34" y="-25" width="193" height="193">
<path d="M158.013 -24.3496H-33.6738V167.337H158.013V-24.3496Z" fill="white"/>
</mask>
<g mask="url(#mask15_282_11110)">
<path d="M116.998 23.9767C117.028 23.9652 117.059 23.9556 117.088 23.9441L116.986 21.9103C116.915 21.9352 116.843 21.9621 116.766 21.9889C115.045 22.6023 112.194 23.6374 112.11 23.6911C112.07 23.8272 112.211 23.9288 112.131 24.084C111.404 23.1639 110.764 22.1442 109.718 21.4886C109.879 21.9026 110.005 22.2266 110.132 22.5544C110.296 22.9013 110.455 23.2483 110.471 23.6566C110.275 23.3805 110.172 23.047 110.04 22.7326C109.652 21.9621 109.238 21.2241 108.65 20.5896C107.724 20.95 106.812 20.8599 105.916 20.3691C104.803 20.9174 103.689 21.4675 102.568 22.0234C102.5 22.2266 102.456 22.4259 102.435 22.6234C102.43 22.6138 102.422 22.6023 102.415 22.5908C102.41 22.5889 102.409 22.585 102.407 22.5831C102.37 22.539 102.334 22.4969 102.29 22.4547C102.221 22.3838 102.148 22.3224 102.071 22.263H102.069C101.772 22.0426 101.431 21.9314 101.048 21.9314C100.568 21.9314 100.158 22.1058 99.8189 22.4547C99.4796 22.794 99.3092 23.2023 99.3092 23.6815V28.4813H91.8851V23.6815C91.8851 23.2023 91.7145 22.794 91.3753 22.4547C91.0343 22.1058 90.626 21.9314 90.1446 21.9314C89.6558 21.9314 89.2418 22.1058 88.9044 22.4547C88.5632 22.794 88.3945 23.2023 88.3945 23.6815V36.7718C88.3945 37.2587 88.5632 37.6708 88.9044 38.0101C89.2418 38.3513 89.6558 38.52 90.1446 38.52C90.626 38.52 91.0343 38.3513 91.3753 38.0101C91.7147 37.6708 91.8851 37.2587 91.8851 36.7718V31.9719H99.3092V36.7718C99.3092 37.2587 99.4798 37.6708 99.8189 38.0101C100.158 38.3513 100.568 38.52 101.048 38.52C101.529 38.52 101.943 38.3513 102.29 38.0101C102.631 37.6708 102.8 37.2587 102.8 36.7718V24.7453C102.815 24.5709 102.817 24.4118 102.817 24.2623C102.851 24.3236 102.886 24.3792 102.922 24.4387C103.221 24.8872 103.557 25.3012 103.933 25.6559C104.391 26.0872 104.653 26.6277 104.73 27.36C104.707 27.4155 104.69 27.5018 104.68 27.5976C104.659 27.7855 104.672 28.0366 104.855 28.165C105.079 28.4277 105.238 28.765 105.558 28.9414C105.755 29.0526 105.88 29.3669 105.957 29.666C106.699 32.4933 107.456 35.3207 108.209 38.1443C108.242 38.265 108.28 38.3839 108.32 38.5238H113.139C113.306 37.159 112.415 35.8632 111.213 35.6964C110.63 35.6159 110.074 35.6638 109.545 35.9801C109.47 36.0357 109.419 36.1545 109.263 36.1162C109.35 36.0242 109.409 35.9609 109.465 35.8977C109.616 35.7156 109.766 35.5316 109.951 35.3092C109.747 34.3469 109.53 33.3406 109.315 32.3304C109.102 31.324 108.891 30.3139 108.681 29.2883C109.175 29.2002 109.643 29.1196 110.164 28.8839C109.85 29.3152 109.495 29.4781 109.135 29.6468C109.108 29.8711 109.187 30.0493 109.305 30.218C109.478 30.4576 109.651 30.6934 109.812 30.9407C110.224 31.5713 110.201 31.8953 109.699 32.4703C109.858 33.2122 110.017 33.9751 110.189 34.7897C110.991 34.3565 111.715 33.8792 112.187 33.009C112.467 32.4933 112.497 31.9585 112.352 31.3854C112.081 30.31 111.637 29.3228 111.209 28.3261C111.09 28.05 111.037 27.8066 111.119 27.4903C111.297 26.8079 111.169 26.1197 111.035 25.3894C111.682 25.8188 114.999 24.7147 116.998 23.9767ZM104.791 23.2732C104.751 23.2387 104.711 23.2061 104.669 23.1735C104.559 23.0853 104.446 23.001 104.337 22.9109C104.563 22.8342 104.743 23.0183 104.941 23.07C105.221 22.9972 105.401 22.7192 105.732 22.5812C105.721 22.61 105.711 22.6368 105.704 22.6655C105.694 22.6943 105.686 22.7192 105.679 22.7461C105.669 22.7786 105.662 22.8131 105.654 22.8419C105.654 22.8457 105.652 22.8496 105.652 22.8534C105.644 22.886 105.638 22.9167 105.635 22.9492C105.629 22.9818 105.625 23.0163 105.623 23.0528C105.621 23.0566 105.621 23.0604 105.621 23.0643C105.613 23.1486 105.613 23.2253 105.617 23.3058C105.621 23.3652 105.627 23.4246 105.634 23.4841C105.638 23.5166 105.642 23.5454 105.648 23.5741C105.663 23.6642 105.682 23.7524 105.705 23.8368C105.713 23.8674 105.721 23.8962 105.728 23.923C105.746 23.9805 105.763 24.0399 105.78 24.0955C105.797 24.1511 105.817 24.2086 105.834 24.2661C105.853 24.3236 105.87 24.3792 105.887 24.4367C105.905 24.4923 105.922 24.5498 105.937 24.6073C105.669 24.2987 105.425 23.9882 105.186 23.6719C105.126 23.5933 105.061 23.5243 104.992 23.4553C104.958 23.4208 104.923 23.3882 104.887 23.3575C104.856 23.3288 104.824 23.3 104.791 23.2732ZM106.7 27.6072C106.683 27.6456 106.668 27.6782 106.651 27.7107C106.633 27.7452 106.618 27.7778 106.601 27.8066C106.566 27.8737 106.53 27.9331 106.492 27.9887C106.472 28.0136 106.455 28.0385 106.436 28.0615C106.434 28.0654 106.43 28.073 106.426 28.0769C106.399 28.1095 106.371 28.1382 106.342 28.1689C106.315 28.1919 106.288 28.2168 106.26 28.2341C106.237 28.2532 106.212 28.2686 106.187 28.2839C106.137 28.3126 106.083 28.3337 106.026 28.3529C105.976 28.3663 105.92 28.3778 105.863 28.3836C105.834 28.3874 105.805 28.3893 105.774 28.3912C105.711 28.3951 105.644 28.3951 105.573 28.3893C105.535 28.3893 105.495 28.3855 105.454 28.3816V28.3797C105.414 28.3241 105.37 28.2686 105.328 28.213C105.286 28.1574 105.244 28.0999 105.203 28.0404V28.0385C105.163 27.981 105.127 27.9216 105.096 27.8564C105.065 27.7913 105.038 27.7261 105.017 27.6532C105.023 27.6341 105.029 27.6168 105.037 27.6053C105.04 27.5977 105.044 27.59 105.05 27.5861C105.054 27.5823 105.06 27.5746 105.063 27.5708C105.071 27.5593 105.083 27.5516 105.094 27.5459C105.105 27.5382 105.117 27.5344 105.13 27.5286C105.148 27.521 105.167 27.5133 105.186 27.5056C105.196 27.5018 105.203 27.498 105.211 27.4941C105.222 27.4903 105.236 27.4807 105.247 27.4731C105.259 27.4654 105.268 27.4558 105.278 27.4462C105.004 27.0897 104.919 26.6718 104.854 26.2118C104.973 26.16 105.09 26.1121 105.207 26.0603C105.326 26.0086 105.443 25.9606 105.563 25.9089C105.623 25.8821 105.682 25.8571 105.743 25.8322C105.803 25.8035 105.864 25.7785 105.925 25.7517C105.987 25.7249 106.048 25.698 106.111 25.6731C106.175 25.6444 106.238 25.6175 106.301 25.5888C106.518 26.252 107.09 26.7792 106.7 27.6072ZM106.825 25.8821C107.063 25.3933 109.761 25.0386 110.484 25.3415C109.261 25.3492 108.069 25.606 106.825 25.8821Z" fill="white"/>
</g>
<mask id="mask16_282_11110" style="mask-type:luminance" maskUnits="userSpaceOnUse" x="-34" y="-25" width="193" height="193">
<path d="M158.013 -24.3496H-33.6738V167.337H158.013V-24.3496Z" fill="white"/>
</mask>
<g mask="url(#mask16_282_11110)">
<path d="M124.057 13.6102C123.99 13.3936 123.819 13.2249 123.6 13.1636C123.721 12.5004 123.769 11.818 123.769 11.149C123.769 9.48896 123.472 7.9248 123.236 7.00087C123.106 6.48715 122.995 6.17087 122.966 6.1517C122.832 6.05394 122.659 6.00602 122.492 6.02902C122.479 6.02902 122.468 6.03094 122.456 6.03285H122.454C121.955 6.78906 121.433 9.37165 121.133 11.0568C120.994 11.8375 120.173 12.2926 119.437 11.9981C119.332 12.0001 119.226 11.9828 119.122 11.9426L116.872 11.078C116.805 11.057 116.742 11.0263 116.684 10.9899L116.682 10.988C116.613 10.942 116.554 10.8883 116.504 10.825C115.93 10.5956 115.687 9.91528 115.987 9.37434C116.515 8.4205 117.294 6.92861 117.84 5.5038C118.032 5.00541 118.087 4.69872 118.055 4.5262C117.917 4.42652 117.75 4.38627 117.587 4.4016H117.576C117.495 4.40735 117.415 4.4361 117.342 4.47444C117.305 4.49169 117.069 4.67763 116.715 4.99008C116.69 5.01117 116.669 5.03033 116.653 5.04375C116.648 5.0495 116.642 5.05333 116.638 5.05717C116.629 5.06675 116.623 5.07059 116.619 5.07442L116.617 5.07634C115.682 5.90826 114.058 7.50884 113.036 9.26853C112.409 10.3458 112.009 11.4844 112.131 12.5406C112.348 14.3942 113.596 15.6651 114.7 16.7846C115.606 17.7008 116.461 18.5692 116.584 19.6004C116.6 19.7576 116.619 19.9148 116.636 20.0682C116.646 20.1372 116.653 20.2081 116.661 20.2771C116.667 20.3154 116.671 20.3595 116.676 20.4017C116.697 20.5876 116.717 20.7716 116.738 20.9576C116.726 20.9652 116.711 20.9691 116.697 20.9748C116.695 20.9748 116.692 20.9768 116.69 20.9768L116.709 21.2394L116.766 21.9889L116.83 22.8246C116.866 22.8093 116.905 22.7959 116.937 22.7844C116.953 22.9358 116.972 23.0911 116.987 23.2444V23.2463L116.991 23.4763L116.999 23.9766L117.022 25.282L117.257 39.4937C117.276 40.7186 117.959 41.7748 118.955 42.3287V42.3307C119.462 42.6105 120.048 42.7639 120.669 42.7447C120.884 42.737 121.091 42.7083 121.292 42.6642C122.291 42.4418 123.107 41.7709 123.537 40.8872C123.753 40.4521 123.872 39.9614 123.872 39.4438C123.872 39.3078 123.863 39.1755 123.845 39.0356L121.961 23.6891C121.915 23.3211 121.869 22.9492 121.823 22.5773C121.817 22.5409 121.813 22.5064 121.808 22.47C121.813 22.447 121.817 22.4259 121.823 22.3972C121.986 21.4426 121.858 20.4017 121.48 19.5736C121.47 19.5544 121.463 19.5333 121.451 19.518C121.434 19.357 121.415 19.1998 121.396 19.0426C121.292 18.1494 122.828 15.6939 123.947 14.239C124.085 14.0588 124.126 13.8192 124.057 13.6102ZM117.643 17.421C117.48 17.3673 117.392 17.1948 117.443 17.0318L118.157 14.8025L114.93 13.4454L118.273 14.4402L118.335 14.2466C118.358 14.1661 118.415 14.1009 118.486 14.0607C118.559 14.0262 118.643 14.0185 118.72 14.0473L121.043 14.7872C121.206 14.8409 121.296 15.0115 121.245 15.1706L120.349 17.9654C120.326 18.042 120.271 18.111 120.198 18.1436C120.165 18.1609 120.129 18.1724 120.093 18.1762C120.05 18.182 120.008 18.1762 119.964 18.1647L117.643 17.421ZM118.331 19.8899C118.344 19.84 118.365 19.7864 118.386 19.7385C118.4 19.7039 118.417 19.6656 118.438 19.6311C118.44 19.6292 118.44 19.6254 118.442 19.6234C118.442 19.6215 118.444 19.6215 118.444 19.6196C118.45 19.61 118.454 19.6043 118.457 19.5966H118.459C118.592 19.361 118.787 19.1845 119.027 19.1021C119.328 18.9985 119.64 18.9372 119.947 18.92C120.051 18.9161 120.15 18.9238 120.242 18.943C120.254 18.9449 120.267 18.9487 120.278 18.9525C120.303 18.9602 120.326 18.964 120.351 18.9755C120.359 18.9775 120.365 18.9794 120.372 18.9832C120.39 18.989 120.409 18.9985 120.426 19.0062H120.428C120.432 19.0062 120.434 19.01 120.438 19.01L120.439 19.0139C120.455 19.0177 120.47 19.0254 120.486 19.0369H120.487C120.505 19.0445 120.52 19.056 120.539 19.0675C120.545 19.0714 120.553 19.0752 120.559 19.081C120.574 19.0925 120.591 19.1059 120.606 19.1174C120.622 19.127 120.637 19.1404 120.654 19.1557C120.675 19.1749 120.697 19.196 120.718 19.2171C120.743 19.2458 120.77 19.2746 120.792 19.3072C120.804 19.3206 120.818 19.3378 120.829 19.3532C120.854 19.3915 120.879 19.4298 120.898 19.472C120.944 19.5544 120.978 19.6464 121.009 19.75C121.022 19.7998 121.036 19.8535 121.045 19.9052C121.154 20.4554 121.16 21.0381 121.298 21.5748C121.5 22.3799 121.385 22.9665 120.936 23.3172C120.687 23.507 120.34 23.6239 119.889 23.6642C119.885 23.6642 119.876 23.6642 119.87 23.668C119.843 23.668 119.814 23.668 119.788 23.6719H119.736C119.695 23.6719 119.657 23.668 119.617 23.6642C119.596 23.6642 119.573 23.6604 119.554 23.6565H119.55C119.502 23.6508 119.454 23.6393 119.408 23.6259C119.377 23.6182 119.343 23.6105 119.312 23.5971C119.289 23.5875 119.268 23.5799 119.247 23.5722H119.245C119.208 23.5569 119.172 23.5377 119.139 23.5185C119.134 23.5147 119.128 23.5108 119.122 23.507C119.093 23.4898 119.066 23.4744 119.038 23.4514C119.019 23.438 119 23.4246 118.98 23.4073C118.902 23.3422 118.831 23.2674 118.771 23.1773C118.764 23.1677 118.756 23.1601 118.75 23.1466C118.746 23.1409 118.745 23.1371 118.741 23.1313C118.741 23.1294 118.739 23.1294 118.739 23.1275C118.719 23.0987 118.704 23.07 118.689 23.0393C118.685 23.0355 118.683 23.0297 118.681 23.024C118.668 22.9952 118.656 22.9665 118.645 22.9358C118.639 22.9205 118.633 22.9051 118.627 22.886C118.618 22.8572 118.608 22.8284 118.601 22.7959C118.591 22.7633 118.585 22.7326 118.58 22.6981C118.576 22.6904 118.576 22.6808 118.574 22.6732C118.562 22.5946 118.553 22.5237 118.541 22.447C118.443 21.7914 118.357 21.132 118.281 20.4688C118.262 20.2675 118.277 20.0701 118.331 19.8899ZM118.858 24.3907L118.845 24.2124C118.848 24.2124 118.852 24.2163 118.858 24.2163C119.253 24.2546 119.607 24.2373 119.92 24.1837H119.922L119.937 24.3581L120.668 32.476C120.67 32.4933 120.67 32.5125 120.67 32.5316V32.5374V32.5565C120.668 32.568 120.668 32.5815 120.666 32.593C120.664 32.6198 120.658 32.6466 120.652 32.6773C120.65 32.685 120.648 32.6907 120.647 32.6984C120.643 32.7137 120.635 32.731 120.629 32.7425C120.625 32.7521 120.622 32.7616 120.618 32.7731C120.612 32.7885 120.604 32.8 120.597 32.8153V32.8172C120.579 32.8498 120.56 32.8786 120.539 32.9073L120.535 32.9112C120.52 32.9284 120.503 32.9495 120.487 32.9648C120.478 32.9744 120.47 32.9821 120.457 32.9898C120.447 32.9993 120.436 33.0089 120.426 33.0166C120.405 33.0358 120.382 33.0473 120.359 33.0626C120.342 33.0703 120.326 33.0818 120.311 33.0856C120.276 33.1009 120.242 33.1124 120.205 33.1239C120.188 33.1278 120.167 33.1316 120.15 33.1354C120.079 33.1431 120.01 33.1431 119.943 33.1316C119.905 33.1239 119.868 33.1105 119.834 33.0971C119.803 33.0856 119.776 33.0741 119.748 33.0549C119.742 33.0511 119.736 33.0473 119.732 33.0453C119.707 33.0319 119.682 33.0128 119.659 32.9898C119.632 32.9706 119.609 32.9457 119.586 32.9169C119.567 32.8958 119.548 32.8652 119.533 32.8383C119.531 32.8383 119.531 32.8345 119.527 32.8345C119.516 32.8096 119.504 32.7885 119.494 32.7616C119.485 32.7386 119.477 32.7156 119.47 32.6907C119.458 32.6543 119.452 32.6141 119.448 32.5738L119.299 30.4748L119.247 29.7579L119.165 28.6366L118.858 24.3907ZM122.787 39.2924C122.787 39.5684 122.738 39.8311 122.648 40.0726V40.0745H122.646C122.452 40.5959 122.069 41.0233 121.578 41.2764C121.273 41.4336 120.928 41.5217 120.56 41.5217C120.071 41.5217 119.617 41.3645 119.249 41.0962C118.691 40.6898 118.331 40.0342 118.331 39.2924C118.331 38.0637 119.329 37.065 120.56 37.065C121.793 37.065 122.787 38.0637 122.787 39.2924ZM122.657 13.961C122.644 13.9572 122.619 13.9533 122.586 13.9438C122.575 13.9438 122.561 13.9399 122.548 13.9361C122.531 13.9342 122.51 13.9284 122.489 13.9246C122.471 13.9208 122.454 13.9188 122.433 13.9131C122.402 13.9073 122.368 13.8997 122.33 13.892C122.31 13.8882 122.291 13.8805 122.268 13.8767C122.23 13.869 122.188 13.8613 122.144 13.8498C122.117 13.8458 122.086 13.8364 122.058 13.8307C122.05 13.8268 122.04 13.8249 122.033 13.823C121.979 13.8115 121.923 13.8 121.866 13.7847C121.799 13.7655 121.73 13.7502 121.657 13.731C121.544 13.7042 121.425 13.6735 121.3 13.6409C121.216 13.6217 121.132 13.5987 121.044 13.5738C120.944 13.5489 120.84 13.5221 120.735 13.4914C120.718 13.4856 120.702 13.4818 120.683 13.476C120.668 13.4722 120.652 13.4684 120.635 13.4645C120.447 13.4109 120.257 13.3572 120.062 13.2997C119.964 13.269 119.866 13.2384 119.769 13.2096C119.671 13.1789 119.573 13.1521 119.476 13.1195C119.276 13.0601 119.081 12.9987 118.889 12.9374C118.69 12.878 118.506 12.809 118.32 12.7496C117.997 12.6441 117.699 12.5349 117.434 12.4409C117.394 12.4275 117.357 12.416 117.321 12.4007C117.286 12.3892 117.254 12.3758 117.219 12.3623H117.217C117.118 12.3259 117.024 12.2876 116.938 12.255C116.911 12.2435 116.882 12.2339 116.855 12.2224C116.801 12.2013 116.751 12.1841 116.706 12.1649C116.681 12.1534 116.656 12.1438 116.633 12.1362C116.593 12.1189 116.56 12.1036 116.529 12.0921C116.512 12.0863 116.497 12.0787 116.481 12.0729C116.468 12.0652 116.456 12.0614 116.445 12.0557C116.407 12.0403 116.384 12.0307 116.37 12.0288V12.0248C116.382 12.0288 116.395 12.0288 116.414 12.0325C116.424 12.0363 116.437 12.0363 116.449 12.0382C116.458 12.0401 116.47 12.042 116.483 12.0459C116.497 12.0478 116.51 12.0497 116.524 12.0535C116.539 12.0555 116.556 12.0612 116.573 12.065C116.617 12.0727 116.669 12.0861 116.727 12.0976C116.74 12.1015 116.754 12.1034 116.767 12.1072C116.78 12.111 116.798 12.1149 116.813 12.1187C116.89 12.136 116.976 12.1532 117.068 12.1762C117.114 12.1858 117.164 12.1992 117.214 12.2107C117.264 12.2222 117.315 12.2356 117.369 12.2471C117.672 12.3257 118.021 12.4158 118.391 12.5193C118.577 12.573 118.768 12.6248 118.964 12.6823C119.06 12.7129 119.159 12.7436 119.259 12.7704C119.359 12.8011 119.455 12.8299 119.554 12.8625C119.654 12.8912 119.75 12.9238 119.849 12.9545C119.947 12.9851 120.045 13.0158 120.141 13.0446C120.333 13.1059 120.522 13.1692 120.706 13.2305C121.028 13.3378 121.329 13.4452 121.592 13.5429C121.628 13.5564 121.667 13.5679 121.703 13.5813C121.715 13.587 121.726 13.5909 121.735 13.5966C121.761 13.6062 121.783 13.6139 121.804 13.6215C121.906 13.6599 122 13.6963 122.086 13.7289C122.115 13.7385 122.142 13.75 122.171 13.7615C122.224 13.7826 122.272 13.7998 122.32 13.819C122.387 13.8458 122.449 13.8688 122.498 13.8918C122.523 13.9033 122.546 13.911 122.566 13.9187C122.587 13.9263 122.602 13.934 122.616 13.9397C122.625 13.9436 122.635 13.9493 122.64 13.9532C122.648 13.9532 122.654 13.957 122.658 13.957V13.961H122.657Z" fill="white"/>
</g>
<mask id="mask17_282_11110" style="mask-type:luminance" maskUnits="userSpaceOnUse" x="-34" y="-25" width="193" height="193">
<path d="M158.013 -24.3496H-33.6738V167.337H158.013V-24.3496Z" fill="white"/>
</mask>
<g mask="url(#mask17_282_11110)">
<path d="M117.25 25.2277L117.066 22.8489C117.101 22.8355 117.137 22.822 117.17 22.8105C117.185 22.9581 117.203 23.1077 117.218 23.2553V23.2572L117.222 23.4795L117.25 25.2277Z" fill="white"/>
</g>
<mask id="mask18_282_11110" style="mask-type:luminance" maskUnits="userSpaceOnUse" x="-34" y="-25" width="193" height="193">
<path d="M158.013 -24.3496H-33.6738V167.337H158.013V-24.3496Z" fill="white"/>
</mask>
<g mask="url(#mask18_282_11110)">
<path d="M117.363 22.0707L117.342 21.7851C117.344 21.7851 117.347 21.7832 117.349 21.7832L117.363 22.0707Z" fill="white"/>
</g>
<path d="M120.676 41.6024C121.336 41.6024 121.898 41.3759 122.357 40.9229C122.817 40.4698 123.048 39.9185 123.048 39.2677C123.048 38.5945 122.818 38.0309 122.357 37.5778C121.898 37.125 121.336 36.8984 120.676 36.8984C119.99 36.8984 119.418 37.1252 118.958 37.5778C118.497 38.0309 118.268 38.5945 118.268 39.2677C118.268 39.9185 118.497 40.4698 118.958 40.9229C119.418 41.3759 119.99 41.6024 120.676 41.6024Z" fill="#F0B424"/>
</g>
<defs>
<clipPath id="clip0_282_11110">
<rect width="130.554" height="43" fill="white"/>
</clipPath>
</defs>
</svg>
